<svg xmlns="http://www.w3.org/2000/svg" xmlns:xlink="http://www.w3.org/1999/xlink" width="336" height="631" viewBox="0 0 336 631"><defs><style>.a{fill:#fff;}.b{fill:#364982;}.c{fill:#e9e9e9;}.d{filter:url(#a);}</style><filter id="a" x="0" y="0" width="336" height="631" filterUnits="userSpaceOnUse"><feOffset dy="4" input="SourceAlpha"/><feGaussianBlur stdDeviation="6" result="b"/><feFlood flood-color="#6f7ac1" flood-opacity="0.161"/><feComposite operator="in" in2="b"/><feComposite in="SourceGraphic"/></filter></defs><g transform="translate(-10099 9900)"><g class="d" transform="matrix(1, 0, 0, 1, 10099, -9900)"><path class="a" d="M276,595H24A24,24,0,0,1,0,571V24A24,24,0,0,1,24,0H276a24,24,0,0,1,24,24V571a24,24,0,0,1-24,24ZM15,44V524H285V44Z" transform="translate(18 14)"/></g><rect class="b" width="73" height="12" rx="6" transform="translate(10231 -9868)"/><circle class="b" cx="6" cy="6" r="6" transform="translate(10351 -9868)"/><circle class="c" cx="21.5" cy="21.5" r="21.5" transform="translate(10246 -9349)"/></g></svg>