<svg xmlns="http://www.w3.org/2000/svg" width="55" height="55" viewBox="0 0 55 55"><defs><style>.a{fill:none;}.b{fill:#fff;}</style></defs><g transform="translate(18680 -21383)"><rect class="a" width="55" height="55" transform="translate(-18680 21383)"/><path class="b" d="M10.25,42.8a5.241,5.241,0,0,1-5.126-5.35V13.374H2.562A2.62,2.62,0,0,1,0,10.7,2.621,2.621,0,0,1,2.562,8.024h10.25A7.861,7.861,0,0,1,20.5,0a7.861,7.861,0,0,1,7.688,8.023h10.25A2.621,2.621,0,0,1,41,10.7a2.62,2.62,0,0,1-2.562,2.675H35.875V37.446A5.24,5.24,0,0,1,30.75,42.8Zm0-5.35h20.5V13.374H10.25ZM17.938,8.024h5.125a2.565,2.565,0,1,0-5.125,0Zm4.727,26.1a1,1,0,0,1-1-1V18.063a1,1,0,0,1,1-1H25.48a1,1,0,0,1,1,1V33.125a1,1,0,0,1-1,1Zm-7.222,0a1,1,0,0,1-1-1V18.063a1,1,0,0,1,1-1h2.815a1,1,0,0,1,1,1V33.125a1,1,0,0,1-1,1Z" transform="translate(-18673 21389)"/></g></svg>