<svg xmlns="http://www.w3.org/2000/svg" width="55" height="55" viewBox="0 0 55 55"><defs><style>.a{fill:none;}.b{fill:#fff;}</style></defs><g transform="translate(18826 -21313)"><rect class="a" width="55" height="55" transform="translate(-18826 21313)"/><g transform="translate(-18838.283 21318)"><path class="b" d="M58.949,25.435a7.905,7.905,0,0,0,1.34-4.458,7.1,7.1,0,0,0-7-6.975H48.475a12.008,12.008,0,0,0,1.313-5.251,11.347,11.347,0,0,0-.957-5.087A6.011,6.011,0,0,0,46.041.889,9.341,9.341,0,0,0,41.912,0,3.469,3.469,0,0,0,39.45,1.012a6.576,6.576,0,0,0-1.7,2.954q-.52,1.8-.834,3.459a4.642,4.642,0,0,1-.971,2.338q-1.34,1.449-2.926,3.5A24.189,24.189,0,0,1,29.277,17.5H21.784a3.5,3.5,0,0,0-3.5,3.5v17.5a3.5,3.5,0,0,0,3.5,3.5h7.876A20.223,20.223,0,0,1,33.433,43.1q3.364,1.176,5.921,1.791a22.069,22.069,0,0,0,5.183.616h3.528a8.717,8.717,0,0,0,6.208-2.2,7.745,7.745,0,0,0,2.325-6,7.7,7.7,0,0,0,1.641-4.868,8.272,8.272,0,0,0-.082-1.176,7.854,7.854,0,0,0,1.04-3.938A7.142,7.142,0,0,0,58.949,25.435ZM24.765,37.988a1.717,1.717,0,1,1,.52-1.231A1.683,1.683,0,0,1,24.765,37.988ZM56.2,23.221q-.588,1.258-1.463,1.285a3.694,3.694,0,0,1,.684,1.3,4.918,4.918,0,0,1,.273,1.518,4.322,4.322,0,0,1-1.449,3.254,3.782,3.782,0,0,1,.492,1.887,4.607,4.607,0,0,1-.479,2.01,3.049,3.049,0,0,1-1.3,1.435A9.352,9.352,0,0,1,53.1,37.44q0,4.567-5.251,4.567H44.538a30.214,30.214,0,0,1-9.353-2q-.137-.055-.793-.287t-.971-.341q-.315-.11-.957-.315t-1.039-.3q-.4-.1-.9-.178a5.513,5.513,0,0,0-.861-.082h-.875V21h.875a2.351,2.351,0,0,0,.971-.246,4.623,4.623,0,0,0,1.094-.739q.561-.492,1.053-.971a15.558,15.558,0,0,0,1.094-1.2q.6-.725.944-1.162t.861-1.121q.519-.683.629-.821,1.5-1.859,2.106-2.489a6.945,6.945,0,0,0,1.627-2.994q.506-1.819.834-3.432A4.526,4.526,0,0,1,41.912,3.5q2.625,0,3.5,1.285a7.142,7.142,0,0,1,.875,3.966,11.171,11.171,0,0,1-1.313,4.389A11.156,11.156,0,0,0,43.662,17.5h9.626a3.369,3.369,0,0,1,2.434,1.053A3.336,3.336,0,0,1,56.79,21,5.375,5.375,0,0,1,56.2,23.221Z"/></g></g></svg>