<svg xmlns="http://www.w3.org/2000/svg" width="55" height="55" viewBox="0 0 55 55"><defs><style>.a{fill:none;}.b{fill:#fff;fill-rule:evenodd;}</style></defs><g transform="translate(18826 -21383)"><rect class="a" width="55" height="55" transform="translate(-18826 21383)"/><path class="b" d="M84.5,384A20.5,20.5,0,1,0,105,404.5,20.5,20.5,0,0,0,84.5,384Zm0,35.875A15.375,15.375,0,1,1,99.875,404.5,15.375,15.375,0,0,1,84.5,419.875Zm-5.125-17.938a2.563,2.563,0,1,0-2.563,2.563A2.562,2.562,0,0,0,79.375,401.937Zm12.812-2.562a2.563,2.563,0,1,0,2.563,2.562A2.562,2.562,0,0,0,92.188,399.375Zm-1.981,7.688a2.5,2.5,0,0,0-1.876.835,5.107,5.107,0,0,1-7.657,0,2.5,2.5,0,0,0-1.881-.835,2.562,2.562,0,0,0-1.9,4.31,10.25,10.25,0,0,0,15.208,0,2.562,2.562,0,0,0-1.9-4.31Z" transform="translate(-18883 21006)"/></g></svg>