<svg xmlns="http://www.w3.org/2000/svg" width="55" height="55" viewBox="0 0 55 55"><defs><style>.a{fill:none;}.b{fill:#fff;}</style></defs><g transform="translate(18753 -21313)"><rect class="a" width="55" height="55" transform="translate(-18753 21313)"/><g transform="translate(-18747 21318)"><path class="b" d="M19.623,20.074a7.905,7.905,0,0,0-1.34,4.458,7.1,7.1,0,0,0,7,6.974H30.1a12.007,12.007,0,0,0-1.313,5.251,11.347,11.347,0,0,0,.957,5.087,6.011,6.011,0,0,0,2.79,2.776,9.341,9.341,0,0,0,4.129.889A3.469,3.469,0,0,0,39.122,44.5a6.576,6.576,0,0,0,1.7-2.954q.52-1.8.834-3.459a4.642,4.642,0,0,1,.971-2.338q1.34-1.449,2.926-3.5A24.189,24.189,0,0,1,49.295,28h7.493a3.5,3.5,0,0,0,3.5-3.5V7a3.372,3.372,0,0,0-1.025-2.475A3.373,3.373,0,0,0,56.788,3.5H48.912a20.223,20.223,0,0,1-3.774-1.094Q41.774,1.231,39.217.616A22.068,22.068,0,0,0,34.035,0H30.507A8.717,8.717,0,0,0,24.3,2.2a7.745,7.745,0,0,0-2.325,6,7.7,7.7,0,0,0-1.641,4.868,8.272,8.272,0,0,0,.082,1.176,7.853,7.853,0,0,0-1.04,3.938A7.142,7.142,0,0,0,19.623,20.074ZM53.807,7.521a1.741,1.741,0,1,1,2.461,2.461,1.741,1.741,0,1,1-2.461-2.461ZM22.37,22.287Q22.958,21.03,23.833,21a3.694,3.694,0,0,1-.684-1.3,4.917,4.917,0,0,1-.273-1.518,4.322,4.322,0,0,1,1.449-3.254,3.782,3.782,0,0,1-.492-1.887,4.606,4.606,0,0,1,.479-2.01,3.049,3.049,0,0,1,1.3-1.435,9.352,9.352,0,0,1-.136-1.531q0-4.567,5.251-4.567h3.308a30.214,30.214,0,0,1,9.353,2q.137.055.793.287t.971.341q.315.11.957.315t1.039.3q.4.1.9.178A5.513,5.513,0,0,0,48.911,7h.875V24.5h-.875a2.351,2.351,0,0,0-.971.246,4.623,4.623,0,0,0-1.094.739q-.561.492-1.053.971a15.558,15.558,0,0,0-1.094,1.2q-.6.725-.944,1.162t-.861,1.121q-.519.683-.629.821-1.5,1.859-2.106,2.489a6.945,6.945,0,0,0-1.627,2.994q-.506,1.819-.834,3.432a4.526,4.526,0,0,1-1.04,2.325q-2.625,0-3.5-1.285a7.142,7.142,0,0,1-.875-3.965A11.17,11.17,0,0,1,33.6,32.366,11.156,11.156,0,0,0,34.909,28H25.283a3.369,3.369,0,0,1-2.434-1.053A3.336,3.336,0,0,1,21.782,24.5,5.375,5.375,0,0,1,22.37,22.287Z" transform="translate(-18.283)"/></g></g></svg>