<svg xmlns="http://www.w3.org/2000/svg" width="55" height="55" viewBox="0 0 55 55">
  <g id="icon_sad" transform="translate(18680 -21313)">
    <rect id="Rectangle_4497" data-name="Rectangle 4497" width="55" height="55" transform="translate(-18680 21313)" fill="none"/>
    <path id="smile_sad_2" data-name="smile sad 2" d="M666.65,371.969a20.512,20.512,0,1,0,.024,0h-.024Zm-15.445,20.5a15.378,15.378,0,1,1,0,.005Zm20.857-2.6a2.544,2.544,0,1,1,0,.005Zm-5.478,5.159a10.229,10.229,0,0,0-7.613,3.378,2.581,2.581,0,0,0,1.9,4.31,2.5,2.5,0,0,0,1.879-.836,5.12,5.12,0,0,1,7.227-.44,5.219,5.219,0,0,1,.44.44,2.5,2.5,0,0,0,1.879.836,2.581,2.581,0,0,0,1.9-4.31,10.238,10.238,0,0,0-7.613-3.373Zm-5.387-5.142a2.59,2.59,0,1,0,0,.005Z" transform="translate(-19319.174 20948.031)" fill="#fff" fill-rule="evenodd"/>
  </g>
</svg>
