<svg xmlns="http://www.w3.org/2000/svg" width="100" height="100" viewBox="0 0 100 100">
  <g id="icon_reflect" transform="translate(4172 15591)">
    <rect id="Rectangle_2986" data-name="Rectangle 2986" width="100" height="100" transform="translate(-4172 -15591)" fill="none"/>
    <g id="icon_reflect-2" data-name="icon_reflect" transform="translate(-4158 -15577)">
      <g id="Path_15661" data-name="Path 15661" transform="translate(0 0)" fill="#ffc300">
        <path d="M 36.16934585571289 70.86267852783203 C 31.42025566101074 70.86267852783203 26.81381607055664 69.93892669677734 22.47798538208008 68.11708831787109 C 18.28998565673828 66.35737609863281 14.52867603302002 63.83807373046875 11.29853630065918 60.62919616699219 C 8.068845748901367 57.42075729370117 5.533345699310303 53.68500518798828 3.76244592666626 49.52569580078125 C 1.929425835609436 45.22045516967773 1.000005841255188 40.64665603637695 1.000005841255188 35.93133544921875 C 1.000005841255188 31.21601486206055 1.929425835609436 26.64221572875977 3.76244592666626 22.33697509765625 C 5.53333568572998 18.17767524719238 8.068845748901367 14.44191551208496 11.2985258102417 11.23348522186279 C 14.52867603302002 8.024595260620117 18.28998565673828 5.505305290222168 22.47798538208008 3.745585441589355 C 26.81381607055664 1.923755407333374 31.42025566101074 1.000005483627319 36.16934585571289 1.000005483627319 C 40.91843414306641 1.000005483627319 45.52487564086914 1.923755407333374 49.86071395874023 3.745585441589355 C 54.0487174987793 5.505305290222168 57.81002426147461 8.024595260620117 61.04016494750977 11.23348522186279 C 64.26985931396484 14.44191551208496 66.80535888671875 18.17767524719238 68.57625579833984 22.33697509765625 C 70.40927886962891 26.64221572875977 71.33869934082031 31.21601486206055 71.33869934082031 35.93133544921875 C 71.33869934082031 40.64665603637695 70.40927886962891 45.22045516967773 68.57625579833984 49.52569580078125 C 66.80535888671875 53.68500518798828 64.26985931396484 57.42075729370117 61.04016494750977 60.62919616699219 C 57.81002426147461 63.83807373046875 54.0487174987793 66.35737609863281 49.86071395874023 68.11708831787109 C 45.52487564086914 69.93892669677734 40.91843414306641 70.86267852783203 36.16934585571289 70.86267852783203 Z" stroke="none"/>
        <path d="M 36.16934585571289 2 C 31.55400085449219 2 27.07788848876953 2.897476196289063 22.8653564453125 4.667510986328125 C 18.79636764526367 6.377212524414063 15.141845703125 8.82501220703125 12.00329208374023 11.94291305541992 C 8.865657806396484 15.05991363525391 6.402587890625 18.68878173828125 4.682525634765625 22.72871398925781 C 2.902534484863281 26.90938949584961 2 31.35139083862305 2 35.93133544921875 C 2 40.51128005981445 2.902534484863281 44.95327758789063 4.682525634765625 49.13395690917969 C 6.402587890625 53.17388916015625 8.865657806396484 56.80275726318359 12.00329208374023 59.91975784301758 C 15.141845703125 63.03765869140625 18.79636764526367 65.48545837402344 22.8653564453125 67.19515991210938 C 27.07788848876953 68.96519470214844 31.55400085449219 69.8626708984375 36.16934585571289 69.8626708984375 C 40.78469085693359 69.8626708984375 45.26080322265625 68.96519470214844 49.47333526611328 67.19515991210938 C 53.54232406616211 65.48545837402344 57.19684600830078 63.03765869140625 60.33540344238281 59.91975784301758 C 63.4730339050293 56.80275726318359 65.93610382080078 53.17388916015625 67.65616607666016 49.13395690917969 C 69.4361572265625 44.95327758789063 70.33869171142578 40.51128005981445 70.33869171142578 35.93133544921875 C 70.33869171142578 31.35139083862305 69.4361572265625 26.90938949584961 67.65616607666016 22.72871398925781 C 65.93610382080078 18.68878173828125 63.4730339050293 15.05991363525391 60.33540344238281 11.94291305541992 C 57.19684600830078 8.82501220703125 53.54232406616211 6.377212524414063 49.47333526611328 4.667510986328125 C 45.26080322265625 2.897476196289063 40.78469085693359 2 36.16934585571289 2 M 36.16934585571289 0 C 56.14512634277344 0 72.33869171142578 16.08700180053711 72.33869171142578 35.93133544921875 C 72.33869171142578 55.77566909790039 56.14512634277344 71.8626708984375 36.16934585571289 71.8626708984375 C 16.19356918334961 71.8626708984375 0 55.77566909790039 0 35.93133544921875 C 0 16.08700180053711 16.19356918334961 0 36.16934585571289 0 Z" stroke="none" fill="#ff9400"/>
      </g>
      <g id="Group_3341" data-name="Group 3341" transform="translate(8.852 0)">
        <rect id="Rectangle_2953" data-name="Rectangle 2953" width="51.791" height="65.523" rx="9.462" transform="translate(0 4.708)" fill="#383838"/>
        <rect id="Rectangle_2954" data-name="Rectangle 2954" width="51.791" height="65.523" rx="9.462" transform="translate(0 3.139)" fill="#3f3f3f"/>
        <rect id="Rectangle_2955" data-name="Rectangle 2955" width="45.905" height="59.638" rx="7.297" transform="translate(2.746 6.278)" fill="#f4f4f4"/>
        <path id="Rectangle_2956" data-name="Rectangle 2956" d="M7.3,0H38.608a7.3,7.3,0,0,1,7.3,7.3V47.913a4.662,4.662,0,0,1-4.662,4.662H17.628A17.628,17.628,0,0,1,0,34.947V7.3A7.3,7.3,0,0,1,7.3,0Z" transform="translate(2.746 6.278)" fill="#fff"/>
        <rect id="Rectangle_2957" data-name="Rectangle 2957" width="24.326" height="8.632" rx="4.316" transform="translate(13.732 0.392)" fill="#383838"/>
        <rect id="Rectangle_2958" data-name="Rectangle 2958" width="24.326" height="6.67" rx="3.335" transform="translate(13.732)" fill="#3f3f3f"/>
        <path id="Path_15632" data-name="Path 15632" d="M-85.609,2278.747H-109.62a1.637,1.637,0,0,1-1.8-1.374h0a1.636,1.636,0,0,1,1.8-1.373h24.011a1.636,1.636,0,0,1,1.8,1.373h0A1.637,1.637,0,0,1-85.609,2278.747Z" transform="translate(123.419 -2261.483)" fill="#7d828b"/>
        <path id="Path_15633" data-name="Path 15633" d="M-85.609,2299.746H-109.62a1.636,1.636,0,0,1-1.8-1.373h0a1.636,1.636,0,0,1,1.8-1.373h24.011a1.636,1.636,0,0,1,1.8,1.373h0A1.636,1.636,0,0,1-85.609,2299.746Z" transform="translate(123.419 -2274.244)" fill="#7d828b"/>
        <path id="Path_15634" data-name="Path 15634" d="M-85.609,2325.747H-109.62a1.637,1.637,0,0,1-1.8-1.373h0a1.636,1.636,0,0,1,1.8-1.373h24.011a1.636,1.636,0,0,1,1.8,1.373h0A1.637,1.637,0,0,1-85.609,2325.747Z" transform="translate(123.419 -2290.042)" fill="#7d828b"/>
        <path id="Path_15635" data-name="Path 15635" d="M-94.406,2347.746h-15.653a1.289,1.289,0,0,1-1.174-1.373h0a1.289,1.289,0,0,1,1.174-1.373h15.653a1.289,1.289,0,0,1,1.174,1.373h0A1.289,1.289,0,0,1-94.406,2347.746Z" transform="translate(123.304 -2303.411)" fill="#7d828b"/>
        <g id="Group_3340" data-name="Group 3340" transform="translate(28.354 30.629)">
          <path id="Path_15636" data-name="Path 15636" d="M-43.647,2324.17l-17.13,17.13a.856.856,0,0,1-.348.21l-5.478,1.829a.883.883,0,0,1-1.092-.493.888.888,0,0,1-.033-.6l1.545-5.17a.853.853,0,0,1,.219-.38l17.47-17.4a.893.893,0,0,1,1.117-.113,12.954,12.954,0,0,1,2.2,1.845,13.163,13.163,0,0,1,1.392,1.675l.235.332A.9.9,0,0,1-43.647,2324.17Z" transform="translate(68.538 -2318.265)" fill="#ffc300"/>
          <path id="Path_15637" data-name="Path 15637" d="M-43.538,2327.251l-17.13,17.13a.858.858,0,0,1-.348.21l-5.478,1.829a.883.883,0,0,1-1.092-.493l22.519-21.815a13.178,13.178,0,0,1,1.392,1.675l.235.332A.9.9,0,0,1-43.538,2327.251Z" transform="translate(68.43 -2321.347)" fill="#ffb020"/>
          <g id="Group_3339" data-name="Group 3339" transform="translate(0)">
            <path id="Path_15638" data-name="Path 15638" d="M-68.083,2342.957a1.65,1.65,0,0,1-1.52-1.008,1.677,1.677,0,0,1-.061-1.13l1.544-5.165a1.609,1.609,0,0,1,.414-.707l17.47-17.4a1.66,1.66,0,0,1,2.078-.218,13.8,13.8,0,0,1,2.346,1.964,13.9,13.9,0,0,1,1.465,1.764l.233.329a1.668,1.668,0,0,1-.175,2.119l-.007.007-17.13,17.13a1.627,1.627,0,0,1-.665.4l-5.464,1.824A1.7,1.7,0,0,1-68.083,2342.957Zm-.093-1.606a.109.109,0,0,0,.135.052l5.474-1.827,17.171-17.149a.119.119,0,0,0,.015-.148l-.232-.328a12.44,12.44,0,0,0-1.311-1.579A12.28,12.28,0,0,0-49,2318.628a.117.117,0,0,0-.141.017l-17.471,17.4-1.569,5.224a.124.124,0,0,0,.007.084Z" transform="translate(69.735 -2317.065)" fill="#ff9400"/>
          </g>
        </g>
      </g>
    </g>
  </g>
</svg>
