<svg xmlns="http://www.w3.org/2000/svg" width="120" height="120" viewBox="0 0 120 120"><defs><style>.a{fill:#1cb0f6;}.b{fill:#2a3777;}.c{fill:#168ed8;}.d{fill:#3fabe0;}.e{fill:#ffc200;}.f{fill:#e36e25;}.g{fill:#f2960f;}.h{fill:#ffb57d;}.i{fill:#fff;}.j,.k{fill:none;}.l,.m{stroke:none;}.m{fill:#e36e25;}</style></defs><g transform="translate(17586 20254)"><g transform="translate(32.793 -12.679)"><path class="a" d="M66.108,66.477a1.362,1.362,0,0,1-.9-.348l-6.244-6.353-.706-.726a1.75,1.75,0,0,0-.547-.378c-.3-.149-.567-.278-.835-.428a19.547,19.547,0,0,1-4.057-2.8l-.994-.895,1.173-.736c.477-.288.994-.616,1.511-.994A27.512,27.512,0,0,0,65.919,30.553a27.114,27.114,0,0,0-1.133-7.566l-.06-.2c-.08-.259-.149-.527-.239-.776l-.418-1.243,1.312-.07h5.727a19.805,19.805,0,0,1,11.116,3.351,18.605,18.605,0,0,1,1.849,1.422,19.886,19.886,0,0,1-1.849,31.588,20.242,20.242,0,0,1-3.38,1.839,19.338,19.338,0,0,1-7.666,1.571H67.4l.06,4.663a1.342,1.342,0,0,1-1.342,1.342Z" transform="translate(-17604.842 -20216.932)"/><path class="b" d="M71.169,21.629a18.511,18.511,0,0,1,7.276,1.491,18.96,18.96,0,0,1,3.213,1.751,17.38,17.38,0,0,1,1.75,1.342,18.822,18.822,0,0,1,3.371,24.857,19.11,19.11,0,0,1-8.332,6.87,18.513,18.513,0,0,1-7.278,1.491H67.391a.994.994,0,0,0-.935.945v4.713a.348.348,0,0,1-.348.348h0a.368.368,0,0,1-.249-.1l-6.184-6.324-.726-.686a2.824,2.824,0,0,0-.855-.6c-.249-.119-.5-.239-.746-.378a18.573,18.573,0,0,1-3.878-2.675c.547-.328,1.074-.686,1.591-1.064A28.456,28.456,0,0,0,66.9,30.547a28.01,28.01,0,0,0-1.124-7.895c-.1-.338-.2-.686-.308-.994h5.747m0-1.989h-5.9l-2.615.129.825,2.486c.089.259.169.527.239.785v.159a25.921,25.921,0,0,1,1.143,7.318,26.509,26.509,0,0,1-10.94,21.459c-.524.375-.991.694-1.448.992L50.22,54.38l1.989,1.8a20.879,20.879,0,0,0,4.265,2.983c.278.159.557.288.825.418h0a1.1,1.1,0,0,1,.249.179l.706.716,6.174,6.254.06.06.07.06a2.346,2.346,0,0,0,3.888-1.76V61.459h2.724a20.452,20.452,0,0,0,8.063-1.69,21.874,21.874,0,0,0,3.579-1.889,20.979,20.979,0,0,0,5.657-5.657,21.536,21.536,0,0,0,1.929-3.55,20.93,20.93,0,0,0,0-16.246,21.536,21.536,0,0,0-1.929-3.55A21.068,21.068,0,0,0,84.741,24.7a18.3,18.3,0,0,0-1.929-1.481,21.536,21.536,0,0,0-3.55-1.929,20.372,20.372,0,0,0-8.053-1.65Z" transform="translate(-17604.83 -20216.928)"/><path class="c" d="M88.591,47.921a18.684,18.684,0,0,1-1.73,3.221,19.3,19.3,0,0,1-5.12,5.121,18.592,18.592,0,0,1-3.211,1.75A18.811,18.811,0,0,1,71.182,59.5H67.463a.925.925,0,0,0-.945.935v4.713a.338.338,0,0,1-.348.348h0a.348.348,0,0,1-.249-.1L62.86,62.279V57.963a.994.994,0,0,1,.935-.945H67.5a18.493,18.493,0,0,0,7.348-1.491,19.11,19.11,0,0,0,8.332-6.87A18.771,18.771,0,0,0,79.812,23.8a18.284,18.284,0,0,1,1.909,1.143,19.3,19.3,0,0,1,5.14,5.071,18.8,18.8,0,0,1,1.75,17.9Z" transform="translate(-17604.904 -20216.949)"/><path class="d" d="M52.855,55.969a18.175,18.175,0,0,1-1.848-1.878l-.727-.777.889-.646A27.938,27.938,0,0,0,62.73,30.01a27.585,27.585,0,0,0-1.1-7.734l-.313-1.07,1.09-.2a20.033,20.033,0,0,1,3.221-.353h.747l.242.707c.091.283.182.576.263.868l.061.2a29.281,29.281,0,0,1,1.232,8.28,29.948,29.948,0,0,1-12.4,24.233,19.688,19.688,0,0,1-1.737,1.141l-.626.374Z" transform="translate(-17604.889 -20216.885)"/><path class="b" d="M65.673,21.67c.111.333.212.687.313,1.01a28.442,28.442,0,0,1,1.191,8.037A28.9,28.9,0,0,1,55.2,54.142c-.524.383-1.06.747-1.615,1.08a17.165,17.165,0,0,1-1.757-1.777A28.9,28.9,0,0,0,63.8,30.02a28.443,28.443,0,0,0-1.191-8,19.3,19.3,0,0,1,3.029-.333m1.444-2.019h-1.5A20.893,20.893,0,0,0,62.229,20l-2.181.414.626,2.13A26.322,26.322,0,0,1,61.684,30a26.92,26.92,0,0,1-11.11,21.792L48.8,53.072l1.424,1.666a18.337,18.337,0,0,0,2.019,2.019l1.1,1.01,1.262-.747c.565-.343,1.141-.737,1.767-1.191A30.947,30.947,0,0,0,69.2,30.717a30.5,30.5,0,0,0-1.222-8.582v-.162c-.091-.313-.182-.636-.283-.939l-.475-1.424Z" transform="translate(-17604.904 -20216.896)"/><path class="d" d="M54.372,54.82c-.2-.212-.384-.444-.565-.666l-.677-.848.889-.616a25.939,25.939,0,0,0,11.107-21.2A25.575,25.575,0,0,0,63.793,23.3l-.343-1.01,1.01-.273c.394-.1.808-.2,1.222-.283l.909-.182.263.889A29.281,29.281,0,0,1,68.145,30.7a29.948,29.948,0,0,1-12.4,24.233l-.707.515Z" transform="translate(-17604.863 -20216.877)"/><path class="b" d="M65.958,22.693a28.443,28.443,0,0,1,1.191,8.017A28.9,28.9,0,0,1,55.173,54.135c-.181-.192-.353-.4-.514-.606A26.828,26.828,0,0,0,64.786,22.965c.384-.1.777-.192,1.171-.273m1.414-2.353-1.818.374c-.444.091-.878.192-1.282.3l-2.08.545.677,2.019a24.808,24.808,0,0,1-9.411,28.272L51.68,53.085l1.333,1.706c.192.232.394.485.626.737l1.212,1.282,1.434-1.01A30.957,30.957,0,0,0,69.168,30.71a30.5,30.5,0,0,0-1.222-8.582l-.525-1.787Z" transform="translate(-17604.877 -20216.887)"/><path class="e" d="M38.552,70.013a1.575,1.575,0,0,1-1.07-.424,1.6,1.6,0,0,1-.475-1.131V61.269a.434.434,0,0,0-.434-.434H30.918A29.918,29.918,0,1,1,30.918,1h7.755a29.586,29.586,0,0,1,11.8,2.4,29.938,29.938,0,0,1,16.65,18.175c.091.273.182.565.263.858l.061.2a29.281,29.281,0,0,1,1.2,8.259,29.948,29.948,0,0,1-12.4,24.233,19.688,19.688,0,0,1-1.737,1.141A28.344,28.344,0,0,1,51.2,58.079a3.332,3.332,0,0,0-1.01.707L39.662,69.549a1.545,1.545,0,0,1-1.111.464Z" transform="translate(-17605.369 -20217.074)"/><path class="f" d="M38.683,2.019A28.646,28.646,0,0,1,50.052,4.342a28.959,28.959,0,0,1,16.1,17.518c.111.333.212.687.313,1.01a28.443,28.443,0,0,1,1.191,8.037A28.9,28.9,0,0,1,55.676,54.333c-.524.383-1.06.747-1.615,1.08a26.8,26.8,0,0,1-3.221,1.757,4.362,4.362,0,0,0-1.3.919l-6.19,6.321L39,68.852a.515.515,0,0,1-.384.162.535.535,0,0,1-.535-.545V61.279a1.444,1.444,0,0,0-1.444-1.444H30.979a28.4,28.4,0,0,1-6.119-.656A28.908,28.908,0,0,1,30.928,2.019h7.755m0-2.019H30.928a30.927,30.927,0,0,0-6.543,61.158,30.5,30.5,0,0,0,6.543.7h5.049v6.614a2.514,2.514,0,0,0,.757,1.817,2.545,2.545,0,0,0,3.645,0l4.332-4.423,6.19-6.321a2.373,2.373,0,0,1,.7-.495,28.445,28.445,0,0,0,3.443-1.878A20.317,20.317,0,0,0,56.787,56,30.947,30.947,0,0,0,69.671,30.907a30.5,30.5,0,0,0-1.222-8.582v-.162c-.091-.313-.182-.636-.283-.939A30.907,30.907,0,0,0,50.84,2.484,30.555,30.555,0,0,0,38.683,0Z" transform="translate(-17605.379 -20217.086)"/><path class="g" d="M67.285,30.881A28.918,28.918,0,0,1,50.474,57.133a4.231,4.231,0,0,0-1.3.919L38.579,68.826a.545.545,0,0,1-.767,0,.555.555,0,0,1-.162-.384V62.707l6.19-6.321a4.362,4.362,0,0,1,1.3-.878A28.9,28.9,0,0,0,44.405,2.68a28.908,28.908,0,0,1,22.88,28.2Z" transform="translate(-17605.012 -20217.059)"/><g transform="translate(-17581.232 -20204.445)"><g transform="translate(0.785)"><path class="h" d="M-337.426,1099.7a10.777,10.777,0,0,0-1.231-.075q-.474,0-.934.042h-.009a10.585,10.585,0,0,0-8.873,6.563,3.862,3.862,0,0,0,2.031,5.013,4.05,4.05,0,0,0,.512.179,3.58,3.58,0,0,0,2.178-.1,3.931,3.931,0,0,0,2.248-2.149,2.836,2.836,0,0,1,1.867-1.78,3.348,3.348,0,0,1,2.179.109,3,3,0,0,1,1.928,2.88,3.2,3.2,0,0,1-.918,2.249,3.1,3.1,0,0,1-2.213.928,3.723,3.723,0,0,0-3.182,1.832,6.135,6.135,0,0,0-.613,3.423v4.145a3.844,3.844,0,0,0,2.852,3.688,3.669,3.669,0,0,0,.943.123,3.365,3.365,0,0,0,1.231-.226,3.86,3.86,0,0,0,2.235-2.269,3.654,3.654,0,0,0,.231-1.315V1120.5a10.79,10.79,0,0,0,6.921-10.123,10.77,10.77,0,0,0-9.384-10.675Zm.3,28.854a3.4,3.4,0,0,0-1.245-.241,3.2,3.2,0,0,0-.929.136,3.491,3.491,0,0,0-2.485,3.377,3.432,3.432,0,0,0,2.495,3.342,3.119,3.119,0,0,0,.92.132,3.285,3.285,0,0,0,1.245-.236,3.447,3.447,0,0,0,2.169-3.234,3.52,3.52,0,0,0-2.169-3.272Z" transform="translate(348.761 -1099.629)"/></g><g transform="translate(0)"><path class="i" d="M-337.426,1099.7a10.777,10.777,0,0,0-1.231-.075q-.474,0-.934.042h-.009a10.585,10.585,0,0,0-8.873,6.563,3.862,3.862,0,0,0,2.031,5.013,4.05,4.05,0,0,0,.512.179,3.58,3.58,0,0,0,2.178-.1,3.931,3.931,0,0,0,2.248-2.149,2.836,2.836,0,0,1,1.867-1.78,3.348,3.348,0,0,1,2.179.109,3,3,0,0,1,1.928,2.88,3.2,3.2,0,0,1-.918,2.249,3.1,3.1,0,0,1-2.213.928,3.723,3.723,0,0,0-3.182,1.832,6.135,6.135,0,0,0-.613,3.423v4.145a3.844,3.844,0,0,0,2.852,3.688,3.669,3.669,0,0,0,.943.123,3.365,3.365,0,0,0,1.231-.226,3.86,3.86,0,0,0,2.235-2.269,3.654,3.654,0,0,0,.231-1.315V1120.5a10.79,10.79,0,0,0,6.921-10.123,10.77,10.77,0,0,0-9.384-10.675Zm.3,28.854a3.4,3.4,0,0,0-1.245-.241,3.2,3.2,0,0,0-.929.136,3.491,3.491,0,0,0-2.485,3.377,3.432,3.432,0,0,0,2.495,3.342,3.119,3.119,0,0,0,.92.132,3.285,3.285,0,0,0,1.245-.236,3.447,3.447,0,0,0,2.169-3.234,3.52,3.52,0,0,0-2.169-3.272Z" transform="translate(348.761 -1099.629)"/></g><g class="j" transform="translate(0)"><path class="l" d="M10.786,35.653a3.291,3.291,0,0,1-.4.022,3.121,3.121,0,0,1-.92-.132A3.432,3.432,0,0,1,6.974,32.2a3.491,3.491,0,0,1,2.485-3.377,3.19,3.19,0,0,1,.929-.136,3.42,3.42,0,0,1,.39.024,3.174,3.174,0,0,1,.4-.024,3.4,3.4,0,0,1,1.245.241v0A3.52,3.52,0,0,1,14.589,32.2a3.447,3.447,0,0,1-2.169,3.234,3.288,3.288,0,0,1-1.245.236h-.024A3.092,3.092,0,0,1,10.786,35.653Zm.1-8.511a3.678,3.678,0,0,1-.394-.021,3.366,3.366,0,0,1-.393.021,3.667,3.667,0,0,1-.943-.122,3.844,3.844,0,0,1-2.853-3.688V19.187a6.136,6.136,0,0,1,.613-3.423A3.723,3.723,0,0,1,10.1,13.931,3.1,3.1,0,0,0,12.314,13a3.2,3.2,0,0,0,.917-2.248A3,3,0,0,0,11.3,7.874a3.354,3.354,0,0,0-.854-.218,3.344,3.344,0,0,0-.537.109,2.835,2.835,0,0,0-1.867,1.78A3.932,3.932,0,0,1,5.8,11.694a3.583,3.583,0,0,1-1.646.2,3.575,3.575,0,0,1-1.32-.1,4.1,4.1,0,0,1-.512-.18A3.862,3.862,0,0,1,.289,6.6,10.584,10.584,0,0,1,9.162.042h.009Q9.631,0,10.1,0q.19,0,.379.008.2-.008.408-.008a10.745,10.745,0,0,1,1.231.075,10.808,10.808,0,0,1,2.463,20.8v2.458a3.655,3.655,0,0,1-.231,1.315,3.859,3.859,0,0,1-2.235,2.269,3.36,3.36,0,0,1-1.213.227Z"/><path class="m" d="M 10.36396312713623 35.67481231689453 C 10.37197494506836 35.67481231689453 10.38002490997314 35.67478179931641 10.38803863525391 35.67471694946289 C 10.39480018615723 35.67475891113281 10.40155410766602 35.67478179931641 10.4083137512207 35.67478179931641 C 10.53466415405273 35.67478179931641 10.66065979003906 35.66750717163086 10.78572845458984 35.65306854248047 C 10.90690898895264 35.66750717163086 11.02895927429199 35.67479705810547 11.15118885040283 35.67480850219727 C 11.15925884246826 35.67480850219727 11.16726875305176 35.67476654052734 11.17533874511719 35.67471694946289 C 11.18214797973633 35.67475891113281 11.18894481658936 35.67478179931641 11.19575214385986 35.67478179931641 C 11.61461734771729 35.67478179931641 12.02977752685547 35.5948371887207 12.41984844207764 35.43845748901367 C 13.73330879211426 34.92251968383789 14.59630870819092 33.63559722900391 14.58875846862793 32.20444869995117 C 14.59181880950928 30.76554870605469 13.73290920257568 29.46985816955566 12.41984844207764 28.93228912353516 L 12.41984844207764 28.92922782897949 C 12.02303886413574 28.77131843566895 11.60112857818604 28.69011878967285 11.17533874511719 28.68828773498535 C 11.17256164550781 28.68828010559082 11.16979789733887 28.68827819824219 11.16702079772949 28.68827819824219 C 11.03674125671387 28.68827819824219 10.90676975250244 28.69632720947266 10.77783870697021 28.71225929260254 C 10.64868927001953 28.69687843322754 10.51855850219727 28.6888484954834 10.38803863525391 28.68828773498535 C 10.38527393341064 28.68828201293945 10.3825569152832 28.68827819824219 10.37979221343994 28.68827819824219 C 10.06799602508545 28.68827819824219 9.757826805114746 28.73437881469727 9.458739280700684 28.8245677947998 C 7.981039047241211 29.25890922546387 6.966468811035156 30.63762855529785 6.973808765411377 32.20118713378906 C 6.963809013366699 33.76126861572266 7.987779140472412 35.13284683227539 9.468539237976074 35.54291915893555 C 9.759321212768555 35.62996673583984 10.06091499328613 35.6748161315918 10.36396312713623 35.67481231689453 M 10.90605926513672 27.14191818237305 C 11.32046890258789 27.14191818237305 11.73137855529785 27.06543922424316 12.1191291809082 26.91541862487793 C 13.15083885192871 26.52187919616699 13.96547889709473 25.69480895996094 14.35454845428467 24.64679908752441 C 14.51163864135742 24.2269287109375 14.59018898010254 23.78075790405273 14.58589935302734 23.33151817321777 L 14.58589935302734 20.873779296875 C 18.7480583190918 19.30165863037109 21.50881958007813 15.26362800598145 21.50718879699707 10.75025844573975 C 21.46821975708008 5.298828125 17.4484691619873 0.7260783314704895 12.12279891967773 0.07507836073637009 C 11.71435928344727 0.02651835978031158 11.30325889587402 0.001428360003046691 10.89175891876221 -1.640014602344309e-06 C 10.75486850738525 -1.640014602344309e-06 10.61877918243408 0.002688359934836626 10.48352909088135 0.008018359541893005 C 10.35732936859131 0.003118359949439764 10.23101902008057 0.0004383599734865129 10.10465908050537 -1.640014602344309e-06 C 9.788839340209961 -1.640014602344309e-06 9.477508544921875 0.0142783597111702 9.170868873596191 0.04222835972905159 L 9.16209888458252 0.04222835972905159 C 5.231298923492432 0.3755883574485779 1.810328960418701 2.905758380889893 0.28938889503479 6.604918479919434 C -0.5083211064338684 8.559158325195313 0.3995489180088043 10.80084800720215 2.319768905639648 11.61791801452637 C 2.486238956451416 11.6889181137085 2.657208919525146 11.749098777771 2.831439018249512 11.79744815826416 C 3.135396242141724 11.87899684906006 3.446682691574097 11.91952896118164 3.757583618164063 11.91952419281006 C 3.88908314704895 11.91952228546143 4.02055835723877 11.91226768493652 4.151309013366699 11.89779853820801 C 4.282211303710938 11.91230487823486 4.413562297821045 11.9195384979248 4.544883251190186 11.91953659057617 C 4.96966552734375 11.91953086853027 5.393647193908691 11.84381294250488 5.797039031982422 11.69360828399658 C 6.805088996887207 11.32107830047607 7.618098735809326 10.54440879821777 8.045309066772461 9.54473876953125 C 8.350929260253906 8.681558609008789 9.045398712158203 8.019338607788086 9.912478446960449 7.764528274536133 C 10.08920860290527 7.713318347930908 10.268798828125 7.677048206329346 10.44953918457031 7.655618190765381 C 10.7405891418457 7.690108299255371 11.02780914306641 7.762928485870361 11.30387878417969 7.873668193817139 C 12.48492908477783 8.317608833312988 13.25897884368896 9.474148750305176 13.23183917999268 10.75412845611572 C 13.23183917999268 11.59792804718018 12.9017391204834 12.40703868865967 12.31436920166016 13.00255870819092 C 11.72863674163818 13.59683227539063 10.93436908721924 13.93102264404297 10.10629081726074 13.93102264404297 C 10.10456943511963 13.93102264404297 10.10271072387695 13.93102169036865 10.10098934173584 13.9310188293457 C 8.798539161682129 13.93611812591553 7.592588901519775 14.63016796112061 6.918728828430176 15.76325798034668 C 6.388888835906982 16.81861877441406 6.175899028778076 18.0090274810791 6.305648803710938 19.18658828735352 L 6.305648803710938 23.33151817321777 C 6.326668739318848 25.07501792907715 7.496298789978027 26.58695793151855 9.158228874206543 27.01945877075195 C 9.465147018432617 27.10087394714355 9.781166076660156 27.14187240600586 10.09846305847168 27.14186859130859 C 10.09922027587891 27.14186859130859 10.10002136230469 27.14186859130859 10.10077857971191 27.14186859130859 C 10.10675525665283 27.14190101623535 10.11273002624512 27.14191627502441 10.11870384216309 27.14191627502441 C 10.24429702758789 27.14191627502441 10.36954498291016 27.13489532470703 10.49391937255859 27.12093925476074 C 10.62399482727051 27.13488006591797 10.75481414794922 27.14187049865723 10.88585186004639 27.14186859130859 C 10.88659191131592 27.14186859130859 10.88734912872314 27.14186859130859 10.88808917999268 27.14186859130859 C 10.89406871795654 27.14189910888672 10.90008926391602 27.14191818237305 10.90605926513672 27.14191818237305 M 11.15118885040283 36.67480850219727 L 11.15110874176025 36.67480850219727 C 11.02924537658691 36.67480087280273 10.90633010864258 36.66924667358398 10.7843189239502 36.65826034545898 C 10.65933799743652 36.66923522949219 10.53331851959229 36.67477798461914 10.40830898284912 36.67477798461914 L 10.38809490203857 36.67471694946289 L 10.36395931243896 36.67480850219727 C 9.968554496765137 36.67481994628906 9.574324607849121 36.61735534667969 9.19205379486084 36.50397872924805 C 7.285517692565918 35.97137069702148 5.963397026062012 34.20368576049805 5.973796844482422 32.20037460327148 C 5.967252254486084 30.31916618347168 7.135830879211426 28.62814331054688 8.854867935180664 27.97355079650879 C 6.790604591369629 27.41368865966797 5.331920623779297 25.51641273498535 5.305718898773193 23.34357833862305 L 5.305648803710938 23.33754920959473 L 5.305648803710938 23.33151817321777 L 5.305648803710938 19.23941993713379 C 5.167144775390625 17.88454818725586 5.415476322174072 16.52873229980469 6.025038719177246 15.31457805633545 L 6.041018962860107 15.28273868560791 L 6.059238910675049 15.25210857391357 C 6.906858921051025 13.82684803009033 8.454058647155762 12.93745803833008 10.09706878662109 12.93102836608887 L 10.10628890991211 12.9310188293457 C 10.6702184677124 12.9310188293457 11.2014684677124 12.70712852478027 11.60215854644775 12.30058860778809 C 12.00241851806641 11.89477825164795 12.23183917999268 11.33120822906494 12.23183917999268 10.75412845611572 L 12.23183917999268 10.74352836608887 L 12.23205852508545 10.73292827606201 C 12.25020885467529 9.877208709716797 11.73579883575439 9.104338645935059 10.95202922821045 8.809728622436523 L 10.94175910949707 8.805868148803711 L 10.93158912658691 8.801778793334961 C 10.77592372894287 8.739344596862793 10.61429119110107 8.693720817565918 10.44963359832764 8.665669441223145 C 10.36234664916992 8.680562973022461 10.27568054199219 8.700423240661621 10.19079875946045 8.725018501281738 C 9.63693904876709 8.887788772583008 9.185929298400879 9.319388389587402 8.987968444824219 9.878498077392578 L 8.977358818054199 9.908468246459961 L 8.964859008789063 9.937707901000977 C 8.432269096374512 11.18396854400635 7.403988838195801 12.16584873199463 6.143679141998291 12.63160800933838 C 5.631369113922119 12.82236862182617 5.092689037322998 12.91952800750732 4.544898986816406 12.9195384979248 C 4.414016246795654 12.9195384979248 4.282052040100098 12.91383743286133 4.151226043701172 12.90255355834961 C 4.020419597625732 12.913818359375 3.888494729995728 12.91952037811279 3.757658958435059 12.91952800750732 C 3.357508897781372 12.91952800750732 2.95871901512146 12.86695861816406 2.572309017181396 12.7632884979248 L 2.568168878555298 12.76217842102051 L 2.564038991928101 12.7610387802124 C 2.349288940429688 12.70143795013428 2.135108947753906 12.62631797790527 1.927458882331848 12.53774833679199 C -0.4869410991668701 11.51040840148926 -1.63745105266571 8.679267883300781 -0.6364510655403137 6.226998329162598 C 0.1801289021968842 4.24094820022583 1.515888929367065 2.523308277130127 3.227388858795166 1.257418394088745 C 4.941228866577148 -0.01020164042711258 6.964199066162109 -0.7749616503715515 9.077598571777344 -0.9541916251182556 L 9.119769096374512 -0.9577716588973999 L 9.126505851745605 -0.9577716588973999 C 9.449150085449219 -0.9857982993125916 9.777961730957031 -1.000001668930054 10.10465908050537 -1.000001668930054 C 10.23219108581543 -0.999566912651062 10.35852241516113 -0.9971060752868652 10.48337650299072 -0.9926785230636597 C 10.61879539489746 -0.9975403547286987 10.75597286224365 -1.000001668930054 10.89175891876221 -1.000001668930054 C 11.34318923950195 -0.9984416365623474 11.79591846466064 -0.9708316326141357 12.24085903167725 -0.9179316163063049 C 15.06372928619385 -0.5728716254234314 17.6578197479248 0.8014483451843262 19.54855918884277 2.952268362045288 C 21.43587875366211 5.099188327789307 22.48659896850586 7.866028308868408 22.50715827941895 10.74310874938965 L 22.50718879699707 10.74650859832764 L 22.50718879699707 10.74989795684814 C 22.50805854797363 13.16678810119629 21.79097938537598 15.49379825592041 20.43347930908203 17.47937774658203 C 19.20705604553223 19.27320289611816 17.5410041809082 20.66721153259277 15.58589935302734 21.54267120361328 L 15.58589935302734 23.3276195526123 C 15.59068298339844 23.89992713928223 15.49151611328125 24.46164894104004 15.29113864898682 24.99721908569336 C 14.80262851715088 26.3130989074707 13.77604866027832 27.35367774963379 12.47552871704102 27.8497486114502 C 12.45665454864502 27.85705184936523 12.43776321411133 27.86421012878418 12.41880416870117 27.87124252319336 C 12.54382514953613 27.90854263305664 12.66751766204834 27.95151710510254 12.78959846496582 28.00009918212891 L 13.41984844207764 28.25090789794922 L 13.41984844207764 28.31888008117676 C 14.75861263275146 29.1266918182373 15.59079551696777 30.58578491210938 15.58876514434814 32.20261001586914 C 15.59283542633057 33.10453033447266 15.33056640625 33.97554397583008 14.83020877838135 34.72163772583008 C 14.32786273956299 35.4706916809082 13.62195587158203 36.0399284362793 12.78855609893799 36.36800765991211 C 12.2795581817627 36.57157897949219 11.74371242523193 36.67477798461914 11.19574928283691 36.67477798461914 L 11.17602920532227 36.67471694946289 L 11.15118885040283 36.67480850219727 Z"/></g></g></g><rect class="k" width="120" height="120" transform="translate(-17586 -20254)"/></g></svg>