<svg xmlns="http://www.w3.org/2000/svg" width="100" height="100" viewBox="0 0 100 100">
  <g id="exercise_minigames" transform="translate(4556 15591)">
    <rect id="Rectangle_2975" data-name="Rectangle 2975" width="100" height="100" transform="translate(-4556 -15591)" fill="none"/>
    <g id="Group_3365" data-name="Group 3365" transform="translate(-4547 -15577)">
      <g id="Group_3356" data-name="Group 3356">
        <g id="Path_15666" data-name="Path 15666" transform="translate(6.187)" fill="#61b2ff">
          <path d="M 36.16934585571289 72.86267852783203 C 31.15277671813965 72.86267852783203 26.28567504882813 71.88638305664063 21.7032356262207 69.9609375 C 17.27719497680664 68.1011962890625 13.30230617523193 65.43892669677734 9.888996124267578 62.04806518554688 C 6.475215911865234 58.65675735473633 3.794835805892944 54.70722579956055 1.922295808792114 50.30917358398438 C -0.01679414510726929 45.75481414794922 -0.999994158744812 40.91741561889648 -0.999994158744812 35.93133544921875 C -0.999994158744812 30.94525527954102 -0.01679414510726929 26.10785484313965 1.922295808792114 21.55350494384766 C 3.794835805892944 17.15545463562012 6.475215911865234 13.2059154510498 9.888996124267578 9.814605712890625 C 13.30230617523193 6.423755645751953 17.27719497680664 3.76148533821106 21.7032356262207 1.901745438575745 C 26.28567504882813 -0.02370455116033554 31.15277671813965 -0.9999945759773254 36.16934585571289 -0.9999945759773254 C 41.18591690063477 -0.9999945759773254 46.05302429199219 -0.02370455116033554 50.63546752929688 1.901745438575745 C 55.06150436401367 3.76148533821106 59.03638458251953 6.423755645751953 62.44970703125 9.814605712890625 C 65.86347961425781 13.2059154510498 68.54386901855469 17.15545463562012 70.41640472412109 21.55350494384766 C 72.35549926757813 26.10785484313965 73.33869934082031 30.94525527954102 73.33869934082031 35.93133544921875 C 73.33869934082031 40.91741561889648 72.35549926757813 45.75481414794922 70.41640472412109 50.30917358398438 C 68.54386901855469 54.70722579956055 65.86347961425781 58.65675735473633 62.44970703125 62.04806518554688 C 59.03638458251953 65.43892669677734 55.06150436401367 68.1011962890625 50.63546752929688 69.9609375 C 46.05302429199219 71.88638305664063 41.18591690063477 72.86267852783203 36.16934585571289 72.86267852783203 Z" stroke="none"/>
          <path d="M 36.16934585571289 0 C 16.19356918334961 0 0 16.08700180053711 0 35.93133544921875 C 0 55.77566909790039 16.19356918334961 71.8626708984375 36.16934585571289 71.8626708984375 C 56.14512634277344 71.8626708984375 72.33869171142578 55.77566909790039 72.33869171142578 35.93133544921875 C 72.33869171142578 16.08700180053711 56.14512634277344 0 36.16934585571289 0 M 36.16934585571289 -2 C 41.31965637207031 -2 46.31710052490234 -0.9974441528320313 51.02283477783203 0.9798126220703125 C 55.56789016723633 2.889572143554688 59.64956665039063 5.623321533203125 63.15446853637695 9.105167388916016 C 66.66029357910156 12.58791351318359 69.41311645507813 16.64433670043945 71.33647918701172 21.16175842285156 C 73.32859802246094 25.84066772460938 74.33869171142578 30.80987930297852 74.33869171142578 35.93133544921875 C 74.33869171142578 41.05279159545898 73.32859802246094 46.02200317382813 71.33647918701172 50.70091247558594 C 69.41311645507813 55.21833801269531 66.66029357910156 59.27475738525391 63.15446853637695 62.75750350952148 C 59.64956665039063 66.23934936523438 55.56789016723633 68.97309875488281 51.02283477783203 70.88285827636719 C 46.31710052490234 72.86011505126953 41.31965637207031 73.8626708984375 36.16934585571289 73.8626708984375 C 31.01903533935547 73.8626708984375 26.02159118652344 72.86011505126953 21.31585693359375 70.88285827636719 C 16.77080154418945 68.97309875488281 12.68912506103516 66.23934936523438 9.184223175048828 62.75750350952148 C 5.678398132324219 59.27475738525391 2.925582885742188 55.21833801269531 1.002212524414063 50.70091247558594 C -0.9899063110351563 46.02200317382813 -2 41.05279159545898 -2 35.93133544921875 C -2 30.80987930297852 -0.9899063110351563 25.84066772460938 1.002212524414063 21.16175842285156 C 2.925582885742188 16.64433670043945 5.678398132324219 12.58791351318359 9.184223175048828 9.105167388916016 C 12.68912506103516 5.623321533203125 16.77080154418945 2.889572143554688 21.31585693359375 0.9798126220703125 C 26.02159118652344 -0.9974441528320313 31.01903533935547 -2 36.16934585571289 -2 Z" stroke="none" fill="#3888d4"/>
        </g>
        <g id="Group_3355" data-name="Group 3355" transform="translate(0 10.764)">
          <rect id="Rectangle_2978" data-name="Rectangle 2978" width="50.927" height="25.628" rx="12.814" transform="matrix(0.259, -0.966, 0.966, 0.259, 0, 49.191)" fill="#1d76cb"/>
          <g id="Union_55" data-name="Union 55" transform="translate(9.558 1.44)" fill="#3c98f0">
            <path d="M 58.26729202270508 50.38270568847656 C 52.63883209228516 50.38313674926758 47.68913269042969 46.58103561401367 46.23054122924805 41.13671493530273 L 43.76616287231445 31.9395866394043 L 43.56756210327148 31.19840621948242 L 42.80023193359375 31.19840621948242 L 16.09920120239258 31.19840621948242 C 12.06607151031494 31.19840621948242 8.274352073669434 29.62789535522461 5.422532081604004 26.77618598937988 C 2.570621967315674 23.92438507080078 1.000001907348633 20.1325569152832 1.000001907348633 16.09920692443848 C 1.000001907348633 12.06617641448975 2.570621967315674 8.274476051330566 5.422541618347168 5.422545909881592 C 8.274472236633301 2.570626020431519 12.06617164611816 1.000005960464478 16.09920120239258 1.000005960464478 L 49.28400039672852 1.000005960464478 C 53.05809020996094 1.000005960464478 56.67095184326172 2.399816036224365 59.45705032348633 4.941586017608643 L 59.49644088745117 4.977516174316406 L 59.53942108154297 5.009056091308594 C 61.84590148925781 6.701526165008545 63.45732116699219 9.06049633026123 64.199462890625 11.83094596862793 L 70.32217407226563 34.68112564086914 C 71.18452453613281 37.89879608154297 70.74211883544922 41.25951766967773 69.07648468017578 44.14424514770508 C 67.41087341308594 47.02893447875977 64.72148895263672 49.09230422973633 61.50375366210938 49.95426559448242 C 60.44334030151367 50.23848724365234 59.3544807434082 50.38262557983398 58.26729202270508 50.38270568847656 Z" stroke="none"/>
            <path d="M 58.26723098754883 49.38270950317383 L 58.26721954345703 49.38270950317383 C 59.26706314086914 49.38263320922852 60.26882934570313 49.24996566772461 61.2449951171875 48.98830795288086 C 64.20471954345703 48.19547653198242 66.67844390869141 46.29756546020508 68.21048736572266 43.64421081542969 C 69.74253845214844 40.9908332824707 70.14945983886719 37.89962005615234 69.35625457763672 34.93994140625 L 63.23351669311523 12.08970928192139 C 62.55087280273438 9.541387557983398 61.06890869140625 7.371720314025879 58.94781875610352 5.815276145935059 L 58.86186218261719 5.752198219299316 L 58.78309631347656 5.680342674255371 C 56.1816291809082 3.307031631469727 52.8081169128418 1.999998211860657 49.28399658203125 1.999998211860657 L 16.09920692443848 1.999998211860657 C 12.33328533172607 1.999998211860657 8.792695999145508 3.466598272323608 6.12965202331543 6.129653930664063 C 3.466596364974976 8.792697906494141 1.999996304512024 12.33328723907471 1.999996304512024 16.09919738769531 C 1.999996304512024 19.86543083190918 3.466596364974976 23.40613174438477 6.129618644714355 26.06905364990234 C 8.792573928833008 28.73189735412598 12.33317375183105 30.19839859008789 16.09920692443848 30.19839859008789 L 42.80022811889648 30.19839859008789 L 44.33488464355469 30.19839859008789 L 44.73208618164063 31.68075370788574 L 47.19647216796875 40.8779296875 C 48.53812789916992 45.88581085205078 53.09058380126953 49.38309860229492 58.26723098754883 49.38270950317383 M 58.26737594604492 51.38270950317383 C 52.31960678100586 51.38315200805664 46.87691879272461 47.41361999511719 45.26460647583008 41.3954963684082 L 42.80022811889648 32.19839859008789 L 16.09920692443848 32.19839859008789 C 7.208096504211426 32.19839859008789 -3.706190227603656e-06 24.99119758605957 -3.706190227603656e-06 16.09919738769531 C -3.706190227603656e-06 7.208098411560059 7.208096504211426 -1.773749431777105e-06 16.09920692443848 -1.773749431777105e-06 L 49.28399658203125 -1.773749431777105e-06 C 53.46256256103516 -1.773749431777105e-06 57.26945114135742 1.592209339141846 60.13103103637695 4.202820301055908 C 62.51494216918945 5.952120304107666 64.34079742431641 8.493898391723633 65.1654052734375 11.57219791412354 L 71.28810882568359 34.42229843139648 C 73.21410369873047 41.60879898071289 68.94900512695313 48.99509811401367 61.76250839233398 50.92019653320313 C 60.59502029418945 51.23313140869141 59.42120742797852 51.38262176513672 58.26737594604492 51.38270950317383 Z" stroke="none" fill="#1d76cb"/>
          </g>
          <path id="Union_56" data-name="Union 56" d="M5.883,13.916V10.183H2.149a2.15,2.15,0,0,1,0-4.3H5.883V2.149a2.15,2.15,0,0,1,4.3,0V5.883h3.733a2.15,2.15,0,0,1,0,4.3H10.183v3.733a2.15,2.15,0,0,1-4.3,0Z" transform="translate(17.957 8.539)" fill="#fff"/>
          <ellipse id="Ellipse_734" data-name="Ellipse 734" cx="2.142" cy="2.38" rx="2.142" ry="2.38" transform="translate(56.676 8.273)" fill="#fff"/>
          <ellipse id="Ellipse_737" data-name="Ellipse 737" cx="2.283" cy="2.283" rx="2.283" ry="2.283" transform="translate(50.865 18.583) rotate(-90)" fill="#fff"/>
          <ellipse id="Ellipse_735" data-name="Ellipse 735" cx="2.142" cy="2.142" rx="2.142" ry="2.142" transform="translate(56.676 19.695)" fill="#fff"/>
          <ellipse id="Ellipse_736" data-name="Ellipse 736" cx="2.283" cy="2.283" rx="2.283" ry="2.283" transform="translate(61.996 18.583) rotate(-90)" fill="#fff"/>
        </g>
      </g>
    </g>
  </g>
</svg>
