<svg xmlns="http://www.w3.org/2000/svg" width="100" height="100" viewBox="0 0 100 100">
  <g id="icon_exam" transform="translate(4314 15591)">
    <rect id="Rectangle_2985" data-name="Rectangle 2985" width="100" height="100" transform="translate(-4314 -15591)" fill="none"/>
    <g id="Group_3358" data-name="Group 3358" transform="translate(-4300 -15577)">
      <g id="Path_15662" data-name="Path 15662" fill="#7ac70c">
        <path d="M 36.16934585571289 70.86267852783203 C 31.42025566101074 70.86267852783203 26.81381607055664 69.93892669677734 22.47798538208008 68.11708831787109 C 18.28998565673828 66.35737609863281 14.52867603302002 63.83807373046875 11.29853630065918 60.62919616699219 C 8.068845748901367 57.42075729370117 5.533345699310303 53.68500518798828 3.76244592666626 49.52569580078125 C 1.929425835609436 45.22045516967773 1.000005841255188 40.64665603637695 1.000005841255188 35.93133544921875 C 1.000005841255188 31.21601486206055 1.929425835609436 26.64221572875977 3.76244592666626 22.33697509765625 C 5.53333568572998 18.17767524719238 8.068845748901367 14.44191551208496 11.2985258102417 11.23348522186279 C 14.52867603302002 8.024595260620117 18.28998565673828 5.505305290222168 22.47798538208008 3.745585441589355 C 26.81381607055664 1.923755407333374 31.42025566101074 1.000005483627319 36.16934585571289 1.000005483627319 C 40.91843414306641 1.000005483627319 45.52487564086914 1.923755407333374 49.86071395874023 3.745585441589355 C 54.0487174987793 5.505305290222168 57.81002426147461 8.024595260620117 61.04016494750977 11.23348522186279 C 64.26985931396484 14.44191551208496 66.80535888671875 18.17767524719238 68.57625579833984 22.33697509765625 C 70.40927886962891 26.64221572875977 71.33869934082031 31.21601486206055 71.33869934082031 35.93133544921875 C 71.33869934082031 40.64665603637695 70.40927886962891 45.22045516967773 68.57625579833984 49.52569580078125 C 66.80535888671875 53.68500518798828 64.26985931396484 57.42075729370117 61.04016494750977 60.62919616699219 C 57.81002426147461 63.83807373046875 54.0487174987793 66.35737609863281 49.86071395874023 68.11708831787109 C 45.52487564086914 69.93892669677734 40.91843414306641 70.86267852783203 36.16934585571289 70.86267852783203 Z" stroke="none"/>
        <path d="M 36.16934585571289 2 C 31.55400085449219 2 27.07788848876953 2.897476196289063 22.8653564453125 4.667510986328125 C 18.79636764526367 6.377212524414063 15.141845703125 8.82501220703125 12.00329208374023 11.94291305541992 C 8.865657806396484 15.05991363525391 6.402587890625 18.68878173828125 4.682525634765625 22.72871398925781 C 2.902534484863281 26.90938949584961 2 31.35139083862305 2 35.93133544921875 C 2 40.51128005981445 2.902534484863281 44.95327758789063 4.682525634765625 49.13395690917969 C 6.402587890625 53.17388916015625 8.865657806396484 56.80275726318359 12.00329208374023 59.91975784301758 C 15.141845703125 63.03765869140625 18.79636764526367 65.48545837402344 22.8653564453125 67.19515991210938 C 27.07788848876953 68.96519470214844 31.55400085449219 69.8626708984375 36.16934585571289 69.8626708984375 C 40.78469085693359 69.8626708984375 45.26080322265625 68.96519470214844 49.47333526611328 67.19515991210938 C 53.54232406616211 65.48545837402344 57.19684600830078 63.03765869140625 60.33540344238281 59.91975784301758 C 63.4730339050293 56.80275726318359 65.93610382080078 53.17388916015625 67.65616607666016 49.13395690917969 C 69.4361572265625 44.95327758789063 70.33869171142578 40.51128005981445 70.33869171142578 35.93133544921875 C 70.33869171142578 31.35139083862305 69.4361572265625 26.90938949584961 67.65616607666016 22.72871398925781 C 65.93610382080078 18.68878173828125 63.4730339050293 15.05991363525391 60.33540344238281 11.94291305541992 C 57.19684600830078 8.82501220703125 53.54232406616211 6.377212524414063 49.47333526611328 4.667510986328125 C 45.26080322265625 2.897476196289063 40.78469085693359 2 36.16934585571289 2 M 36.16934585571289 0 C 56.14512634277344 0 72.33869171142578 16.08700180053711 72.33869171142578 35.93133544921875 C 72.33869171142578 55.77566909790039 56.14512634277344 71.8626708984375 36.16934585571289 71.8626708984375 C 16.19356918334961 71.8626708984375 0 55.77566909790039 0 35.93133544921875 C 0 16.08700180053711 16.19356918334961 0 36.16934585571289 0 Z" stroke="none" fill="#68a90a"/>
      </g>
      <g id="Group_3348" data-name="Group 3348" transform="translate(10.946 2.38)">
        <rect id="Rectangle_2963" data-name="Rectangle 2963" width="50.214" height="63.225" rx="9.462" transform="translate(0 4.627)" fill="#383838"/>
        <rect id="Rectangle_2964" data-name="Rectangle 2964" width="50.214" height="63.225" rx="9.462" transform="translate(0 3.111)" fill="#3f3f3f"/>
        <rect id="Rectangle_2965" data-name="Rectangle 2965" width="44.283" height="57.521" rx="7.297" transform="translate(2.965 5.962)" fill="#f4f4f4"/>
        <path id="Rectangle_2966" data-name="Rectangle 2966" d="M7.3,0H36.986a7.3,7.3,0,0,1,7.3,7.3V46.064a4.662,4.662,0,0,1-4.662,4.662H17.628A17.628,17.628,0,0,1,0,33.1V7.3A7.3,7.3,0,0,1,7.3,0Z" transform="translate(2.965 5.962)" fill="#fff"/>
        <rect id="Rectangle_2967" data-name="Rectangle 2967" width="23.583" height="8.206" rx="4.103" transform="translate(13.537 0.394)" fill="#383838"/>
        <g id="Group_3347" data-name="Group 3347" transform="translate(12.351 19.044)">
          <ellipse id="Ellipse_728" data-name="Ellipse 728" cx="13.087" cy="13.087" rx="13.087" ry="13.087" fill="#7ac70c"/>
          <path id="Path_15657" data-name="Path 15657" d="M82.725,2323.735l5.474,5.54a13.093,13.093,0,0,0,9.876-12.621c0-.211,0-.42-.012-.628l-3.739-3.777Z" transform="translate(-71.88 -2303.527)" opacity="0.15"/>
          <path id="Path_15658" data-name="Path 15658" d="M64.064,2312.033l2.92-2.85,4.241,4.241,8.62-8.551,2.85,2.781-11.54,11.54Z" transform="translate(-60.293 -2298.947)" fill="#fff"/>
        </g>
        <rect id="Rectangle_2968" data-name="Rectangle 2968" width="23.583" height="6.326" rx="3.163" transform="translate(13.537 0)" fill="#3f3f3f"/>
      </g>
    </g>
  </g>
</svg>
