<svg xmlns="http://www.w3.org/2000/svg" xmlns:xlink="http://www.w3.org/1999/xlink" width="120" height="120" viewBox="0 0 120 120"><defs><style>.a{fill:#f5c000;}.b{fill:url(#a);}.c{fill:url(#b);}.d{fill:#3f3f3f;}.e{fill:#ffc300;stroke-linejoin:round;}.e,.f{stroke:#3f3f3f;stroke-linecap:round;stroke-width:2px;}.f,.g{fill:none;}.h,.i{stroke:none;}.i{fill:#ff9400;}</style><linearGradient id="a" x1="0.169" y1="0.738" x2="0.672" y2="0.088" gradientUnits="objectBoundingBox"><stop offset="0" stop-color="#fff"/><stop offset="1" stop-color="#e0ecef"/></linearGradient><linearGradient id="b" x1="0.285" y1="0.708" x2="1" gradientUnits="objectBoundingBox"><stop offset="0" stop-color="#f6f6f6"/><stop offset="1" stop-color="#d7e2e6"/></linearGradient></defs><g transform="translate(20723 18539)"><g transform="translate(7.035 0.001)"><g class="a" transform="translate(-20707.877 -18516.5)"><path class="h" d="M 37.85714340209961 76 C 32.61307525634766 76 27.52525520324707 74.98236846923828 22.73501014709473 72.97538757324219 C 18.10806655883789 71.03681182861328 13.95271015167236 68.26164245605469 10.38435459136963 64.72695922851562 C 6.815343379974365 61.19162368774414 4.013054370880127 57.07429885864258 2.055332183837891 52.48938751220703 C 0.02796562388539314 47.74136734008789 -1.000001072883606 42.69821166992188 -1.000001072883606 37.5 C -1.000001072883606 32.30178833007812 0.02796562388539314 27.25863265991211 2.055332183837891 22.51061058044434 C 4.013054370880127 17.92569923400879 6.815343379974365 13.80837821960449 10.38435459136963 10.27304458618164 C 13.95271015167236 6.73835563659668 18.10806655883789 3.963188886642456 22.73501014709473 2.024610996246338 C 27.52525520324707 0.01763333380222321 32.61307525634766 -1 37.85714340209961 -1 C 43.10121154785156 -1 48.18903350830078 0.01763333380222321 52.97927856445312 2.024610996246338 C 57.60622024536133 3.963188886642456 61.76157760620117 6.73835563659668 65.32993316650391 10.27304458618164 C 68.89894104003906 13.80837821960449 71.70123291015625 17.92569923400879 73.65895080566406 22.51061058044434 C 75.68631744384766 27.25863265991211 76.71428680419922 32.30178833007812 76.71428680419922 37.5 C 76.71428680419922 42.69821166992188 75.68631744384766 47.74136734008789 73.65895080566406 52.48938751220703 C 71.70123291015625 57.07429885864258 68.89894104003906 61.19162368774414 65.32993316650391 64.72695922851562 C 61.76157760620117 68.26164245605469 57.60622024536133 71.03681182861328 52.97927856445312 72.97538757324219 C 48.18903350830078 74.98236846923828 43.10121154785156 76 37.85714340209961 76 Z"/><path class="i" d="M 37.85714340209961 0 C 16.94922256469727 0 0 16.78932189941406 0 37.5 C 0 58.21067810058594 16.94922256469727 75 37.85714340209961 75 C 58.76506805419922 75 75.71428680419922 58.21067810058594 75.71428680419922 37.5 C 75.71428680419922 16.78932189941406 58.76506805419922 0 37.85714340209961 0 M 37.85714340209961 -2 C 43.23460006713867 -2 48.45243072509766 -0.9562301635742188 53.36570739746094 1.102302551269531 C 58.11158752441406 3.0906982421875 62.37371063232422 5.937156677246094 66.03367614746094 9.562599182128906 C 69.69496917724609 13.18933486938477 72.56990051269531 17.41355514526367 74.57862091064453 22.11792373657227 C 76.6593017578125 26.99077606201172 77.71428680419922 32.16605377197266 77.71428680419922 37.5 C 77.71428680419922 42.83394622802734 76.6593017578125 48.00922393798828 74.57862091064453 52.882080078125 C 72.56990051269531 57.58644485473633 69.69496917724609 61.8106689453125 66.03367614746094 65.43740081787109 C 62.37371063232422 69.06284332275391 58.11158752441406 71.9093017578125 53.36570739746094 73.89769744873047 C 48.45243072509766 75.95623016357422 43.23460006713867 77 37.85714340209961 77 C 32.47968673706055 77 27.26185607910156 75.95623016357422 22.34857559204102 73.89769744873047 C 17.60269927978516 71.9093017578125 13.340576171875 69.06284332275391 9.680610656738281 65.43740081787109 C 6.019317626953125 61.8106689453125 3.144386291503906 57.58644485473633 1.135665893554688 52.882080078125 C -0.9450149536132812 48.00922393798828 -2 42.83394622802734 -2 37.5 C -2 32.16605377197266 -0.9450149536132812 26.99077606201172 1.135665893554688 22.11792373657227 C 3.144386291503906 17.41355514526367 6.019317626953125 13.18933486938477 9.680610656738281 9.562599182128906 C 13.340576171875 5.937156677246094 17.60269927978516 3.0906982421875 22.34857559204102 1.102302551269531 C 27.26185607910156 -0.9562301635742188 32.47968673706055 -2 37.85714340209961 -2 Z"/></g><g transform="translate(-20713.035 -18526)"><path class="b" d="M2.987,8.081,0,14.194,13.974,73.363l5.759,3.562,44.9-10.6,2.125-6.893L55.865,13.3,33.05,0Z" transform="matrix(0.974, 0.225, -0.225, 0.974, 18.97, 1.997)"/><path class="c" d="M55.639,0S34.6,25.33,8.463,28.976,25.08,48.632,25.08,48.632L43.519,53.5l4.458-1.212L58.513,18.846l4.256-15.8Z" transform="translate(8.791 41.95) rotate(-17)"/><path class="d" d="M35.572,0,6.164,6.941a8.017,8.017,0,0,0-5.95,9.632L13,70.711l.823,3.495a8.015,8.015,0,0,0,9.632,5.95l40.125-9.474a8.012,8.012,0,0,0,5.95-9.627L58.435,14.074ZM62.647,66.757,22.522,76.23a4.8,4.8,0,0,1-4.773-2.958l-6.8-28.814-6.8-28.814a4.8,4.8,0,0,1,2.949-4.768l28.459-6.75L38.161,15.18c.7,2.982,2.652,4.189,5.639,3.485l10.838-2.59L65.591,61.984A4.789,4.789,0,0,1,62.647,66.757Z" transform="matrix(0.974, 0.225, -0.225, 0.974, 18.079, 0)"/></g><path class="d" d="M3.24.1A4.266,4.266,0,0,1,.768-.8a.4.4,0,0,1-.18-.564l.588-1.056a.327.327,0,0,1,.516-.108,2.846,2.846,0,0,0,1.44.516c.5,0,.828-.252.828-.648,0-.7-.972-.948-1.836-1.428A2.662,2.662,0,0,1,.54-6.576,2.568,2.568,0,0,1,3.432-8.952a3.936,3.936,0,0,1,1.74.516.33.33,0,0,1,.12.5L4.74-7.08a.343.343,0,0,1-.5.132,1.914,1.914,0,0,0-.888-.24c-.528,0-.84.252-.84.612,0,.576.78.816,1.5,1.176A3.109,3.109,0,0,1,6.036-2.652,2.707,2.707,0,0,1,3.24.1ZM11.328.072A4.522,4.522,0,0,1,6.816-4.44a4.52,4.52,0,0,1,4.5-4.512,4.368,4.368,0,0,1,3.168,1.38.33.33,0,0,1,.024.5l-.7.84a.327.327,0,0,1-.516.036,3.027,3.027,0,0,0-1.968-.828,2.584,2.584,0,0,0-2.58,2.58,2.584,2.584,0,0,0,2.58,2.58A3,3,0,0,0,13.3-2.652a.309.309,0,0,1,.5.036l.72.936a.353.353,0,0,1-.036.516A4.671,4.671,0,0,1,11.328.072Zm8.208-9.024A4.514,4.514,0,0,0,15.024-4.44,4.514,4.514,0,0,0,19.536.072,4.507,4.507,0,0,0,24.048-4.44,4.507,4.507,0,0,0,19.536-8.952ZM19.524-7.02A2.615,2.615,0,0,1,22.1-4.44a2.615,2.615,0,0,1-2.58,2.58,2.556,2.556,0,0,1-2.556-2.58A2.556,2.556,0,0,1,19.524-7.02Zm11.6,6.588-1.92-3.276a2.762,2.762,0,0,0,1.428-2.424,2.758,2.758,0,0,0-2.76-2.748h-2.46a.328.328,0,0,0-.36.36V-.36a.328.328,0,0,0,.36.36h1.212A.332.332,0,0,0,27-.36v-3h.264L29.028-.252A.453.453,0,0,0,29.472,0h1.4C31.176,0,31.284-.192,31.128-.432ZM27-6.936h.876a.817.817,0,0,1,.828.8.815.815,0,0,1-.828.828H27ZM40.644-8.88H39.7a.436.436,0,0,0-.432.264L36.576-3.084,33.888-8.616a.458.458,0,0,0-.432-.264h-.948a.328.328,0,0,0-.36.36V-.36a.328.328,0,0,0,.36.36H33.72a.332.332,0,0,0,.372-.36V-4.3L35.94-.528a.356.356,0,0,0,.348.216h.564A.356.356,0,0,0,37.2-.528L39.048-4.3V-.36a.328.328,0,0,0,.36.36h1.236A.328.328,0,0,0,41-.36V-8.52A.328.328,0,0,0,40.644-8.88Z" transform="translate(-20691.535 -18460.695)"/><g transform="translate(-20686.592 -18504.672)"><path class="e" d="M19.047,0,25.4,11.133,19.047,22.265H6.349L0,11.133,6.349,0Z" transform="translate(11.132 0) rotate(30)"/><line class="f" x1="9.751" y2="5.79" transform="translate(16.408 10.826)"/><line class="f" x2="9.751" y2="5.79" transform="translate(6.962 10.826)"/><line class="f" y2="10.97" transform="translate(16.562 16.374)"/></g></g><g transform="translate(-16011 -2947.666)"><rect class="g" width="120" height="120" transform="translate(-4712 -15591.334)"/></g></g></svg>