<svg xmlns="http://www.w3.org/2000/svg" xmlns:xlink="http://www.w3.org/1999/xlink" width="100" height="100" viewBox="0 0 100 100">
  <defs>
    <clipPath id="clip-path">
      <rect id="Rectangle_3007" data-name="Rectangle 3007" width="60.568" height="60.568" rx="13" fill="none"/>
    </clipPath>
  </defs>
  <g id="icon_read" transform="translate(5156 15591)">
    <rect id="Rectangle_2971" data-name="Rectangle 2971" width="100" height="100" transform="translate(-5156 -15591)" fill="none"/>
    <g id="Path_15663" data-name="Path 15663" transform="translate(-5141.989 -15578)" fill="#8549ba">
      <path d="M 36.16934585571289 72.86267852783203 C 31.15277671813965 72.86267852783203 26.28567504882813 71.88638305664063 21.7032356262207 69.9609375 C 17.27719497680664 68.1011962890625 13.30230617523193 65.43892669677734 9.888996124267578 62.04806518554688 C 6.475215911865234 58.65675735473633 3.794835805892944 54.70722579956055 1.922295808792114 50.30917358398438 C -0.01679414510726929 45.75481414794922 -0.999994158744812 40.91741561889648 -0.999994158744812 35.93133544921875 C -0.999994158744812 30.94525527954102 -0.01679414510726929 26.10785484313965 1.922295808792114 21.55350494384766 C 3.794835805892944 17.15545463562012 6.475215911865234 13.2059154510498 9.888996124267578 9.814605712890625 C 13.30230617523193 6.423755645751953 17.27719497680664 3.76148533821106 21.7032356262207 1.901745438575745 C 26.28567504882813 -0.02370455116033554 31.15277671813965 -0.9999945759773254 36.16934585571289 -0.9999945759773254 C 41.18591690063477 -0.9999945759773254 46.05302429199219 -0.02370455116033554 50.63546752929688 1.901745438575745 C 55.06150436401367 3.76148533821106 59.03638458251953 6.423755645751953 62.44970703125 9.814605712890625 C 65.86347961425781 13.2059154510498 68.54386901855469 17.15545463562012 70.41640472412109 21.55350494384766 C 72.35549926757813 26.10785484313965 73.33869934082031 30.94525527954102 73.33869934082031 35.93133544921875 C 73.33869934082031 40.91741561889648 72.35549926757813 45.75481414794922 70.41640472412109 50.30917358398438 C 68.54386901855469 54.70722579956055 65.86347961425781 58.65675735473633 62.44970703125 62.04806518554688 C 59.03638458251953 65.43892669677734 55.06150436401367 68.1011962890625 50.63546752929688 69.9609375 C 46.05302429199219 71.88638305664063 41.18591690063477 72.86267852783203 36.16934585571289 72.86267852783203 Z" stroke="none"/>
      <path d="M 36.16934585571289 0 C 16.19356918334961 0 0 16.08700180053711 0 35.93133544921875 C 0 55.77566909790039 16.19356918334961 71.8626708984375 36.16934585571289 71.8626708984375 C 56.14512634277344 71.8626708984375 72.33869171142578 55.77566909790039 72.33869171142578 35.93133544921875 C 72.33869171142578 16.08700180053711 56.14512634277344 0 36.16934585571289 0 M 36.16934585571289 -2 C 41.31965637207031 -2 46.31710052490234 -0.9974441528320313 51.02283477783203 0.9798126220703125 C 55.56789016723633 2.889572143554688 59.64956665039063 5.623321533203125 63.15446853637695 9.105167388916016 C 66.66029357910156 12.58791351318359 69.41311645507813 16.64433670043945 71.33647918701172 21.16175842285156 C 73.32859802246094 25.84066772460938 74.33869171142578 30.80987930297852 74.33869171142578 35.93133544921875 C 74.33869171142578 41.05279159545898 73.32859802246094 46.02200317382813 71.33647918701172 50.70091247558594 C 69.41311645507813 55.21833801269531 66.66029357910156 59.27475738525391 63.15446853637695 62.75750350952148 C 59.64956665039063 66.23934936523438 55.56789016723633 68.97309875488281 51.02283477783203 70.88285827636719 C 46.31710052490234 72.86011505126953 41.31965637207031 73.8626708984375 36.16934585571289 73.8626708984375 C 31.01903533935547 73.8626708984375 26.02159118652344 72.86011505126953 21.31585693359375 70.88285827636719 C 16.77080154418945 68.97309875488281 12.68912506103516 66.23934936523438 9.184223175048828 62.75750350952148 C 5.678398132324219 59.27475738525391 2.925582885742188 55.21833801269531 1.002212524414063 50.70091247558594 C -0.9899063110351563 46.02200317382813 -2 41.05279159545898 -2 35.93133544921875 C -2 30.80987930297852 -0.9899063110351563 25.84066772460938 1.002212524414063 21.16175842285156 C 2.925582885742188 16.64433670043945 5.678398132324219 12.58791351318359 9.184223175048828 9.105167388916016 C 12.68912506103516 5.623321533203125 16.77080154418945 2.889572143554688 21.31585693359375 0.9798126220703125 C 26.02159118652344 -0.9974441528320313 31.01903533935547 -2 36.16934585571289 -2 Z" stroke="none" fill="#413b5b"/>
    </g>
    <g id="Group_3377" data-name="Group 3377" transform="translate(-4077.431 -17853.977)">
      <path id="Path_15667" data-name="Path 15667" d="M-991.831,2291.536v40.471a20.346,20.346,0,0,1-11.728,11.725H-1054.9a20.345,20.345,0,0,1-11.726-11.725v-40.471a20.342,20.342,0,0,1,11.726-11.728h51.338A20.343,20.343,0,0,1-991.831,2291.536Z" transform="translate(0.512 0.511)" fill="#8549ba"/>
      <path id="Path_15668" data-name="Path 15668" d="M-991.319,2292.047a20.342,20.342,0,0,0-11.728-11.727,20.134,20.134,0,0,0-7.191-1.319h-36.956a20.141,20.141,0,0,0-7.191,1.319,20.341,20.341,0,0,0-11.726,11.727,20.117,20.117,0,0,0-1.321,7.191v26.087a20.132,20.132,0,0,0,1.321,7.193,20.345,20.345,0,0,0,11.726,11.725,20.151,20.151,0,0,0,7.191,1.319h36.956a20.144,20.144,0,0,0,7.191-1.319,20.346,20.346,0,0,0,11.728-11.725,20.16,20.16,0,0,0,1.319-7.193v-26.087A20.145,20.145,0,0,0-991.319,2292.047Zm-1.321,33.279a17.617,17.617,0,0,1-17.6,17.6h-36.956a17.617,17.617,0,0,1-17.6-17.6v-26.087a17.618,17.618,0,0,1,17.6-17.6h36.956a17.618,17.618,0,0,1,17.6,17.6Z" fill="#413b5b"/>
      <g id="Group_3373" data-name="Group 3373" transform="translate(-1062.909 2280.673)" opacity="0.08">
        <path id="Path_15673" data-name="Path 15673" d="M11.874,0H55.958A11.874,11.874,0,0,1,67.833,11.874V50.739A11.874,11.874,0,0,1,55.958,62.613H11.874A11.874,11.874,0,0,1,0,50.739V11.874A11.874,11.874,0,0,1,11.874,0Z" fill="#3e004e"/>
      </g>
      <rect id="Rectangle_2988" data-name="Rectangle 2988" width="60.568" height="60.568" rx="16" transform="translate(-1059.602 2282.213)" fill="#b6b6b7"/>
      <rect id="Rectangle_2989" data-name="Rectangle 2989" width="60.568" height="60.568" rx="12" transform="translate(-1059.602 2281.696)" fill="#d4d6d8"/>
      <g id="Group_3375" data-name="Group 3375" transform="translate(-1059.602 2281.237)">
        <g id="Group_3374" data-name="Group 3374" clip-path="url(#clip-path)">
          <rect id="Rectangle_2990" data-name="Rectangle 2990" width="60.568" height="2.712" fill="#fff"/>
          <rect id="Rectangle_2991" data-name="Rectangle 2991" width="60.568" height="3.836" transform="translate(0 2.712)" fill="#fff"/>
          <rect id="Rectangle_2992" data-name="Rectangle 2992" width="60.568" height="3.836" transform="translate(0 6.548)" fill="#fefefe"/>
          <rect id="Rectangle_2993" data-name="Rectangle 2993" width="60.568" height="3.836" transform="translate(0 10.384)" fill="#fdfdfd"/>
          <rect id="Rectangle_2994" data-name="Rectangle 2994" width="60.568" height="3.836" transform="translate(0 14.221)" fill="#fcfcfc"/>
          <rect id="Rectangle_2995" data-name="Rectangle 2995" width="60.568" height="3.836" transform="translate(0 18.057)" fill="#fbfbfb"/>
          <rect id="Rectangle_2996" data-name="Rectangle 2996" width="60.568" height="3.836" transform="translate(0 21.893)" fill="#fafafa"/>
          <rect id="Rectangle_2997" data-name="Rectangle 2997" width="60.568" height="3.836" transform="translate(0 25.729)" fill="#f9f9f9"/>
          <rect id="Rectangle_2998" data-name="Rectangle 2998" width="60.568" height="3.836" transform="translate(0 29.565)" fill="#f8f8f8"/>
          <rect id="Rectangle_2999" data-name="Rectangle 2999" width="60.568" height="3.836" transform="translate(0 33.401)" fill="#f7f7f7"/>
          <rect id="Rectangle_3000" data-name="Rectangle 3000" width="60.568" height="3.836" transform="translate(0 37.237)" fill="#f6f6f6"/>
          <rect id="Rectangle_3001" data-name="Rectangle 3001" width="60.568" height="3.836" transform="translate(0 41.073)" fill="#f5f5f5"/>
          <rect id="Rectangle_3002" data-name="Rectangle 3002" width="60.568" height="3.836" transform="translate(0 44.909)" fill="#f4f4f4"/>
          <rect id="Rectangle_3003" data-name="Rectangle 3003" width="60.568" height="3.836" transform="translate(0 48.745)" fill="#f3f3f3"/>
          <rect id="Rectangle_3004" data-name="Rectangle 3004" width="60.568" height="3.836" transform="translate(0 52.582)" fill="#f2f2f2"/>
          <rect id="Rectangle_3005" data-name="Rectangle 3005" width="60.568" height="3.836" transform="translate(0 56.418)" fill="#f0f0f0"/>
          <rect id="Rectangle_3006" data-name="Rectangle 3006" width="60.568" height="0.314" transform="translate(0 60.254)" fill="#efefef"/>
        </g>
      </g>
      <path id="Path_15669" data-name="Path 15669" d="M-1014.634,2342.77h-34.413a14.414,14.414,0,0,1-14.4-14.4v-34.413a14.414,14.414,0,0,1,14.4-14.4h34.413a14.415,14.415,0,0,1,14.4,14.4v34.413A14.416,14.416,0,0,1-1014.634,2342.77Zm-34.413-60.569a11.771,11.771,0,0,0-11.757,11.757v34.413a11.772,11.772,0,0,0,11.757,11.759h34.413a11.772,11.772,0,0,0,11.759-11.759v-34.413a11.771,11.771,0,0,0-11.759-11.757Z" transform="translate(2.522 0.356)" fill="#413b5b"/>
      <rect id="Rectangle_3008" data-name="Rectangle 3008" width="21.107" height="2.753" rx="0.843" transform="translate(-1054.946 2314.733)" fill="#7d828b"/>
      <rect id="Rectangle_3009" data-name="Rectangle 3009" width="21.107" height="2.753" rx="0.843" transform="translate(-1054.946 2323.91)" fill="#7d828b"/>
      <rect id="Rectangle_3010" data-name="Rectangle 3010" width="21.107" height="2.753" rx="0.843" transform="translate(-1054.946 2296.379)" fill="#7d828b"/>
      <rect id="Rectangle_3011" data-name="Rectangle 3011" width="21.107" height="2.753" rx="0.843" transform="translate(-1054.946 2305.556)" fill="#7d828b"/>
      <rect id="Rectangle_3012" data-name="Rectangle 3012" width="21.107" height="2.753" rx="0.843" transform="translate(-1024.662 2314.733)" fill="#7d828b"/>
      <rect id="Rectangle_3013" data-name="Rectangle 3013" width="21.107" height="2.753" rx="0.843" transform="translate(-1024.662 2323.91)" fill="#7d828b"/>
      <rect id="Rectangle_3014" data-name="Rectangle 3014" width="21.107" height="2.753" rx="0.843" transform="translate(-1024.662 2296.379)" fill="#7d828b"/>
      <rect id="Rectangle_3015" data-name="Rectangle 3015" width="21.107" height="2.753" rx="0.843" transform="translate(-1024.662 2305.556)" fill="#7d828b"/>
      <rect id="Rectangle_3016" data-name="Rectangle 3016" width="0.65" height="57.67" transform="translate(-1029.643 2282.715)" fill="#eaeff4"/>
      <path id="Path_15670" data-name="Path 15670" d="M-1046.614,2317.87h-7.891c-.449,0-.81-.057-.81.406v7.663c0,1.173.872.542,1.381.286l1.079-.541,1.725-.862a1.445,1.445,0,0,1,1.141,0l2.8,1.4c.508.256,1.381.887,1.381-.286v-7.663C-1045.8,2317.813-1046.163,2317.87-1046.614,2317.87Z" transform="translate(7.664 24.583)" fill="#413b5b"/>
      <g id="Group_3376" data-name="Group 3376" transform="translate(-1046.037 2341.805)">
        <path id="Path_15671" data-name="Path 15671" d="M-1047.941,2317.8v6.249c0,.958-.586.443-.927.234l-1.882-1.145a.816.816,0,0,0-.766,0l-1.157.7-.725.441c-.341.209-.927.06-.927-.234V2317.8c0-.183.244-.331.544-.331h5.3C-1048.184,2317.474-1047.941,2317.427-1047.941,2317.8Z" transform="translate(1054.326 -2317.472)" fill="#ff5855"/>
        <path id="Path_15672" data-name="Path 15672" d="M-1052.674,2317.474v6.373l-.725.441c-.341.209-.927.725-.927-.234V2317.8c0-.378.244-.331.544-.331Z" transform="translate(1054.326 -2317.472)" fill="#dd4e4e"/>
      </g>
    </g>
  </g>
</svg>
