<svg xmlns="http://www.w3.org/2000/svg" width="100" height="100" viewBox="0 0 100 100">
  <g id="icon_quiz" transform="translate(5014 15591)">
    <rect id="Rectangle_2972" data-name="Rectangle 2972" width="100" height="100" transform="translate(-5014 -15591)" fill="none"/>
    <g id="Group_3361" data-name="Group 3361" transform="translate(-5000 -15577)">
      <g id="Path_15659" data-name="Path 15659" fill="#7ac70c">
        <path d="M 36.16934585571289 70.86267852783203 C 31.42025566101074 70.86267852783203 26.81381607055664 69.93892669677734 22.47798538208008 68.11708831787109 C 18.28998565673828 66.35737609863281 14.52867603302002 63.83807373046875 11.29853630065918 60.62919616699219 C 8.068845748901367 57.42075729370117 5.533345699310303 53.68500518798828 3.76244592666626 49.52569580078125 C 1.929425835609436 45.22045516967773 1.000005841255188 40.64665603637695 1.000005841255188 35.93133544921875 C 1.000005841255188 31.21601486206055 1.929425835609436 26.64221572875977 3.76244592666626 22.33697509765625 C 5.53333568572998 18.17767524719238 8.068845748901367 14.44191551208496 11.2985258102417 11.23348522186279 C 14.52867603302002 8.024595260620117 18.28998565673828 5.505305290222168 22.47798538208008 3.745585441589355 C 26.81381607055664 1.923755407333374 31.42025566101074 1.000005483627319 36.16934585571289 1.000005483627319 C 40.91843414306641 1.000005483627319 45.52487564086914 1.923755407333374 49.86071395874023 3.745585441589355 C 54.0487174987793 5.505305290222168 57.81002426147461 8.024595260620117 61.04016494750977 11.23348522186279 C 64.26985931396484 14.44191551208496 66.80535888671875 18.17767524719238 68.57625579833984 22.33697509765625 C 70.40927886962891 26.64221572875977 71.33869934082031 31.21601486206055 71.33869934082031 35.93133544921875 C 71.33869934082031 40.64665603637695 70.40927886962891 45.22045516967773 68.57625579833984 49.52569580078125 C 66.80535888671875 53.68500518798828 64.26985931396484 57.42075729370117 61.04016494750977 60.62919616699219 C 57.81002426147461 63.83807373046875 54.0487174987793 66.35737609863281 49.86071395874023 68.11708831787109 C 45.52487564086914 69.93892669677734 40.91843414306641 70.86267852783203 36.16934585571289 70.86267852783203 Z" stroke="none"/>
        <path d="M 36.16934585571289 2 C 31.55400085449219 2 27.07788848876953 2.897476196289063 22.8653564453125 4.667510986328125 C 18.79636764526367 6.377212524414063 15.141845703125 8.82501220703125 12.00329208374023 11.94291305541992 C 8.865657806396484 15.05991363525391 6.402587890625 18.68878173828125 4.682525634765625 22.72871398925781 C 2.902534484863281 26.90938949584961 2 31.35139083862305 2 35.93133544921875 C 2 40.51128005981445 2.902534484863281 44.95327758789063 4.682525634765625 49.13395690917969 C 6.402587890625 53.17388916015625 8.865657806396484 56.80275726318359 12.00329208374023 59.91975784301758 C 15.141845703125 63.03765869140625 18.79636764526367 65.48545837402344 22.8653564453125 67.19515991210938 C 27.07788848876953 68.96519470214844 31.55400085449219 69.8626708984375 36.16934585571289 69.8626708984375 C 40.78469085693359 69.8626708984375 45.26080322265625 68.96519470214844 49.47333526611328 67.19515991210938 C 53.54232406616211 65.48545837402344 57.19684600830078 63.03765869140625 60.33540344238281 59.91975784301758 C 63.4730339050293 56.80275726318359 65.93610382080078 53.17388916015625 67.65616607666016 49.13395690917969 C 69.4361572265625 44.95327758789063 70.33869171142578 40.51128005981445 70.33869171142578 35.93133544921875 C 70.33869171142578 31.35139083862305 69.4361572265625 26.90938949584961 67.65616607666016 22.72871398925781 C 65.93610382080078 18.68878173828125 63.4730339050293 15.05991363525391 60.33540344238281 11.94291305541992 C 57.19684600830078 8.82501220703125 53.54232406616211 6.377212524414063 49.47333526611328 4.667510986328125 C 45.26080322265625 2.897476196289063 40.78469085693359 2 36.16934585571289 2 M 36.16934585571289 0 C 56.14512634277344 0 72.33869171142578 16.08700180053711 72.33869171142578 35.93133544921875 C 72.33869171142578 55.77566909790039 56.14512634277344 71.8626708984375 36.16934585571289 71.8626708984375 C 16.19356918334961 71.8626708984375 0 55.77566909790039 0 35.93133544921875 C 0 16.08700180053711 16.19356918334961 0 36.16934585571289 0 Z" stroke="none" fill="#578c03"/>
      </g>
      <g id="Group_3346" data-name="Group 3346" transform="translate(7.646 0.088)">
        <rect id="Rectangle_2959" data-name="Rectangle 2959" width="48.521" height="61.492" rx="5.071" transform="translate(8.347 7.124)" fill="#7ac70c"/>
        <rect id="Rectangle_2960" data-name="Rectangle 2960" width="48.521" height="61.492" rx="6.25" transform="translate(8.587 7.184)" fill="none" stroke="#578c03" stroke-miterlimit="10" stroke-width="2"/>
        <path id="Path_15652" data-name="Path 15652" d="M-695.941,2275.771v49.148a7.073,7.073,0,0,1-7.073,7.073h-35.7a2.389,2.389,0,0,1-2.389-2.389v-49.148a7.073,7.073,0,0,1,7.073-7.073h35.7A2.389,2.389,0,0,1-695.941,2275.771Z" transform="translate(748.486 -2267.219)" fill="#578c03" opacity="0.31"/>
        <rect id="Rectangle_2961" data-name="Rectangle 2961" width="48.521" height="61.492" rx="6.25" transform="translate(0.661 0.578)" fill="#f4f4f4"/>
        <path id="Path_15653" data-name="Path 15653" d="M-758.187,2309.471s25.762,15.627,48.221,0v-46.729l-2.477-3.617h-42.441l-2.642,4.7Z" transform="translate(758.187 -2259.125)" fill="#fff"/>
        <path id="Path_15654" data-name="Path 15654" d="M-714.863,2290.974a11.168,11.168,0,0,0-1.273-.077q-.49,0-.966.043h-.009a10.929,10.929,0,0,0-9.176,6.677,3.906,3.906,0,0,0,2.1,5.1,4.3,4.3,0,0,0,.529.183,3.753,3.753,0,0,0,2.253-.106,4.035,4.035,0,0,0,2.325-2.186,2.912,2.912,0,0,1,1.931-1.811,3.516,3.516,0,0,1,2.253.111,3.054,3.054,0,0,1,1.994,2.93,3.232,3.232,0,0,1-3.238,3.233,3.862,3.862,0,0,0-3.291,1.864,6.156,6.156,0,0,0-.634,3.483v4.217a3.922,3.922,0,0,0,2.95,3.752,3.842,3.842,0,0,0,.975.125,3.544,3.544,0,0,0,1.273-.23,3.958,3.958,0,0,0,2.312-2.308,3.67,3.67,0,0,0,.239-1.339v-2.5a10.984,10.984,0,0,0,7.158-10.3A11.02,11.02,0,0,0-714.863,2290.974Zm.307,29.357a3.576,3.576,0,0,0-1.287-.245,3.357,3.357,0,0,0-.961.139,3.558,3.558,0,0,0-2.57,3.435,3.5,3.5,0,0,0,2.58,3.4,3.275,3.275,0,0,0,.951.134,3.463,3.463,0,0,0,1.287-.24,3.508,3.508,0,0,0,2.243-3.291A3.58,3.58,0,0,0-714.556,2320.331Z" transform="translate(740.726 -2277.163)" fill="#68a90a"/>
        <path id="Path_15655" data-name="Path 15655" d="M-716.785,2291.031c-.105-.01-.211-.024-.317-.034h-.009a10.929,10.929,0,0,0-9.176,6.677,3.906,3.906,0,0,0,2.1,5.1,4.3,4.3,0,0,0,.529.183c.115-.034.226-.067.331-.106a4.034,4.034,0,0,0,2.325-2.186,3.094,3.094,0,0,1,3.853-1.811,3.516,3.516,0,0,1,2.253.111,3.053,3.053,0,0,1,1.994,2.93,3.232,3.232,0,0,1-3.238,3.233,3.862,3.862,0,0,0-3.291,1.864,6.154,6.154,0,0,0-.634,3.483v4.218a3.923,3.923,0,0,0,2.95,3.752,2.583,2.583,0,0,0,.326-.105,3.888,3.888,0,0,0,2.551-3.647v-2.5a10.984,10.984,0,0,0,7.158-10.3A11.02,11.02,0,0,0-716.785,2291.031Zm.307,29.357c-.105-.038-.216-.076-.326-.105a3.558,3.558,0,0,0-2.57,3.435,3.5,3.5,0,0,0,2.58,3.4,2.246,2.246,0,0,0,.317-.106,3.508,3.508,0,0,0,2.244-3.291A3.58,3.58,0,0,0-716.478,2320.388Z" transform="translate(740.25 -2277.22)" fill="#7ac70c"/>
        <path id="Path_15656" data-name="Path 15656" d="M-716.7,2326.993a4.179,4.179,0,0,1-4.174-4.174,4.2,4.2,0,0,1,4.174-4.219,4.191,4.191,0,0,1,1.519.288l0,0a4.245,4.245,0,0,1,2.652,3.929,4.117,4.117,0,0,1-2.659,3.887A4.047,4.047,0,0,1-716.7,2326.993Zm0-7.107a2.914,2.914,0,0,0-2.888,2.933,2.857,2.857,0,0,0,2.888,2.888,2.775,2.775,0,0,0,1.046-.2,2.844,2.844,0,0,0,1.842-2.69,2.948,2.948,0,0,0-1.836-2.732A2.91,2.91,0,0,0-716.7,2319.886Zm-.3-1.569a4.549,4.549,0,0,1-4.567-4.522v-4.456a6.321,6.321,0,0,1,.731-3.579,4.464,4.464,0,0,1,3.835-2.173,2.6,2.6,0,0,0,2.6-2.592,2.412,2.412,0,0,0-1.586-2.329,2.821,2.821,0,0,0-2.138.018,2.261,2.261,0,0,0-1.212,1.308,4.707,4.707,0,0,1-2.708,2.567,4.431,4.431,0,0,1-3.254-.091,4.528,4.528,0,0,1-2.442-5.945,11.53,11.53,0,0,1,10.741-7.113,11.169,11.169,0,0,1,1.35.082,11.605,11.605,0,0,1,10.278,11.5,11.562,11.562,0,0,1-7.159,10.734v2.065a4.523,4.523,0,0,1-2.979,4.252A4.12,4.12,0,0,1-716.991,2318.316Zm-.053-21.14a4.191,4.191,0,0,1,1.537.294,3.673,3.673,0,0,1,2.4,3.525,3.886,3.886,0,0,1-3.885,3.878,3.188,3.188,0,0,0-2.737,1.557,5.163,5.163,0,0,0-.543,2.906v4.459a3.3,3.3,0,0,0,3.28,3.235,2.872,2.872,0,0,0,1.041-.188,3.24,3.24,0,0,0,2.143-3.047v-2.947l.417-.157a10.3,10.3,0,0,0,6.742-9.7,10.319,10.319,0,0,0-9.144-10.225h0a9.945,9.945,0,0,0-1.195-.072,10.261,10.261,0,0,0-9.558,6.331,3.251,3.251,0,0,0,1.77,4.259,3.153,3.153,0,0,0,2.309.062,3.4,3.4,0,0,0,1.951-1.841,3.49,3.49,0,0,1,1.88-2A3.929,3.929,0,0,1-717.044,2297.176Z" transform="translate(741.103 -2276.319)" fill="#578c03"/>
        <rect id="Rectangle_2962" data-name="Rectangle 2962" width="48.521" height="61.492" rx="6.25" transform="translate(0.661 0.578)" fill="none" stroke="#578c03" stroke-miterlimit="10" stroke-width="2"/>
      </g>
    </g>
  </g>
</svg>
