<svg xmlns="http://www.w3.org/2000/svg" width="100" height="100" viewBox="0 0 100 100">
  <g id="icon_vn" transform="translate(4435 15591)">
    <rect id="Rectangle_2976" data-name="Rectangle 2976" width="100" height="100" transform="translate(-4435 -15591)" fill="none"/>
    <g id="Group_3360" data-name="Group 3360" transform="translate(-4421 -15578)">
      <g id="Path_15660" data-name="Path 15660" transform="translate(0 2.895)" fill="#ffc544">
        <path d="M 36.16934585571289 70.86267852783203 C 31.42025566101074 70.86267852783203 26.81381607055664 69.93892669677734 22.47798538208008 68.11708831787109 C 18.28998565673828 66.35737609863281 14.52867603302002 63.83807373046875 11.29853630065918 60.62919616699219 C 8.068845748901367 57.42075729370117 5.533345699310303 53.68500518798828 3.76244592666626 49.52569580078125 C 1.929425835609436 45.22045516967773 1.000005841255188 40.64665603637695 1.000005841255188 35.93133544921875 C 1.000005841255188 31.21601486206055 1.929425835609436 26.64221572875977 3.76244592666626 22.33697509765625 C 5.53333568572998 18.17767524719238 8.068845748901367 14.44191551208496 11.2985258102417 11.23348522186279 C 14.52867603302002 8.024595260620117 18.28998565673828 5.505305290222168 22.47798538208008 3.745585441589355 C 26.81381607055664 1.923755407333374 31.42025566101074 1.000005483627319 36.16934585571289 1.000005483627319 C 40.91843414306641 1.000005483627319 45.52487564086914 1.923755407333374 49.86071395874023 3.745585441589355 C 54.0487174987793 5.505305290222168 57.81002426147461 8.024595260620117 61.04016494750977 11.23348522186279 C 64.26985931396484 14.44191551208496 66.80535888671875 18.17767524719238 68.57625579833984 22.33697509765625 C 70.40927886962891 26.64221572875977 71.33869934082031 31.21601486206055 71.33869934082031 35.93133544921875 C 71.33869934082031 40.64665603637695 70.40927886962891 45.22045516967773 68.57625579833984 49.52569580078125 C 66.80535888671875 53.68500518798828 64.26985931396484 57.42075729370117 61.04016494750977 60.62919616699219 C 57.81002426147461 63.83807373046875 54.0487174987793 66.35737609863281 49.86071395874023 68.11708831787109 C 45.52487564086914 69.93892669677734 40.91843414306641 70.86267852783203 36.16934585571289 70.86267852783203 Z" stroke="none"/>
        <path d="M 36.16934585571289 2 C 31.55400085449219 2 27.07788848876953 2.897476196289063 22.8653564453125 4.667510986328125 C 18.79636764526367 6.377212524414063 15.141845703125 8.82501220703125 12.00329208374023 11.94291305541992 C 8.865657806396484 15.05991363525391 6.402587890625 18.68878173828125 4.682525634765625 22.72871398925781 C 2.902534484863281 26.90938949584961 2 31.35139083862305 2 35.93133544921875 C 2 40.51128005981445 2.902534484863281 44.95327758789063 4.682525634765625 49.13395690917969 C 6.402587890625 53.17388916015625 8.865657806396484 56.80275726318359 12.00329208374023 59.91975784301758 C 15.141845703125 63.03765869140625 18.79636764526367 65.48545837402344 22.8653564453125 67.19515991210938 C 27.07788848876953 68.96519470214844 31.55400085449219 69.8626708984375 36.16934585571289 69.8626708984375 C 40.78469085693359 69.8626708984375 45.26080322265625 68.96519470214844 49.47333526611328 67.19515991210938 C 53.54232406616211 65.48545837402344 57.19684600830078 63.03765869140625 60.33540344238281 59.91975784301758 C 63.4730339050293 56.80275726318359 65.93610382080078 53.17388916015625 67.65616607666016 49.13395690917969 C 69.4361572265625 44.95327758789063 70.33869171142578 40.51128005981445 70.33869171142578 35.93133544921875 C 70.33869171142578 31.35139083862305 69.4361572265625 26.90938949584961 67.65616607666016 22.72871398925781 C 65.93610382080078 18.68878173828125 63.4730339050293 15.05991363525391 60.33540344238281 11.94291305541992 C 57.19684600830078 8.82501220703125 53.54232406616211 6.377212524414063 49.47333526611328 4.667510986328125 C 45.26080322265625 2.897476196289063 40.78469085693359 2 36.16934585571289 2 M 36.16934585571289 0 C 56.14512634277344 0 72.33869171142578 16.08700180053711 72.33869171142578 35.93133544921875 C 72.33869171142578 55.77566909790039 56.14512634277344 71.8626708984375 36.16934585571289 71.8626708984375 C 16.19356918334961 71.8626708984375 0 55.77566909790039 0 35.93133544921875 C 0 16.08700180053711 16.19356918334961 0 36.16934585571289 0 Z" stroke="none" fill="#ff9400"/>
      </g>
      <g id="Group_3345" data-name="Group 3345" transform="translate(4.314 0)">
        <g id="Group_3342" data-name="Group 3342" transform="translate(12.431)">
          <path id="Path_15639" data-name="Path 15639" d="M-316.937,2252.573l.02,0-.177.065q-.88.379-1.815.687l-14.137,5.347,4.168-4.167c-9.8-.725-17.455-6.775-17.455-14.135a10.553,10.553,0,0,1,.45-3.048c1.907-6.382,9.683-11.158,18.986-11.158,9.11,0,16.756,4.582,18.86,10.767a10.606,10.606,0,0,1,.575,3.44C-307.462,2245.558-311.263,2250.093-316.937,2252.573Z" transform="translate(347.187 -2225.311)" fill="#f4f4f4"/>
          <path id="Path_15640" data-name="Path 15640" d="M-307.347,2236.932c-4.071,3.74-11.124,6.213-19.144,6.213-7.736,0-14.574-2.3-18.7-5.822,1.907-6.382,9.683-11.158,18.986-11.158C-317.1,2226.165-309.451,2230.747-307.347,2236.932Z" transform="translate(346.497 -2225.311)" fill="#fff"/>
          <ellipse id="Ellipse_723" data-name="Ellipse 723" cx="1.583" cy="1.583" rx="1.583" ry="1.583" transform="translate(18.833 14.692)" fill="#ff9400"/>
          <ellipse id="Ellipse_724" data-name="Ellipse 724" cx="1.583" cy="1.583" rx="1.583" ry="1.583" transform="translate(25.76 14.692)" fill="#ff9400"/>
          <ellipse id="Ellipse_725" data-name="Ellipse 725" cx="1.583" cy="1.583" rx="1.583" ry="1.583" transform="translate(11.605 14.692)" fill="#ff9400"/>
          <path id="Path_15641" data-name="Path 15641" d="M-337.77,2259.569l5.713-5.714c-9.491-1.337-16.441-7.476-16.441-14.794a11.428,11.428,0,0,1,.486-3.3c2.07-6.927,10.214-11.766,19.8-11.766,9.308,0,17.4,4.665,19.669,11.345a11.487,11.487,0,0,1,.621,3.716c0,4.53-2.778,8.812-7.412,11.646a34.634,34.634,0,0,1-4.622,2.122Zm9.562-33.86c-8.7,0-16.34,4.436-18.167,10.548a9.725,9.725,0,0,0-.414,2.8c0,6.869,7.163,12.58,16.663,13.283l1.86.137-2.677,2.677,10.422-3.942c.637-.211,1.224-.434,1.779-.673l.153-.066c5.528-2.417,8.962-6.791,8.962-11.418a9.773,9.773,0,0,0-.529-3.164C-312.2,2229.9-319.621,2225.709-328.208,2225.709Z" transform="translate(348.498 -2224)" fill="#3f3f3f"/>
        </g>
        <g id="Group_3343" data-name="Group 3343" transform="translate(0 35.592)">
          <path id="Path_15642" data-name="Path 15642" d="M-345.21,2324.907a8.544,8.544,0,0,1-8.546,8.546,8.653,8.653,0,0,1-1.709-.171,8.546,8.546,0,0,1-6.837-8.375,8.546,8.546,0,0,1,6.837-8.375,8.653,8.653,0,0,1,1.709-.171A8.544,8.544,0,0,1-345.21,2324.907Z" transform="translate(369.285 -2315.507)" fill="#f4f4f4"/>
          <path id="Path_15643" data-name="Path 15643" d="M-348.423,2381.262v0a2.876,2.876,0,0,1-.661.882l-28.719-.45c0-.141-.38-.046-.38-.19a14.56,14.56,0,0,1,8.816-13.5l.015-.006a15.09,15.09,0,0,1,4.272-1.13c.371-.042.749-.07,1.129-.086h0c.192-.007.384-.011.577-.011A14.953,14.953,0,0,1-348.423,2381.262Z" transform="translate(378.9 -2346.026)" fill="#f4f4f4"/>
          <ellipse id="Ellipse_726" data-name="Ellipse 726" cx="6.837" cy="8.375" rx="6.837" ry="8.375" transform="translate(6.984 1.025)" fill="#fff"/>
          <path id="Path_15644" data-name="Path 15644" d="M-351.088,2381.4c0,.146,0,.286,0,.427l-25.965-.46c0-.141-.522.178-.522.033a14.952,14.952,0,0,1,13.246-14.856A14.952,14.952,0,0,1-351.088,2381.4Z" transform="translate(378.535 -2345.885)" fill="#fff"/>
          <path id="Path_15645" data-name="Path 15645" d="M-355.067,2333a9.522,9.522,0,0,1-1.878-.188,9.423,9.423,0,0,1-7.522-9.212,9.424,9.424,0,0,1,7.522-9.213,9.536,9.536,0,0,1,1.879-.188,9.411,9.411,0,0,1,9.4,9.4A9.411,9.411,0,0,1-355.067,2333Zm0-17.091a7.829,7.829,0,0,0-1.54.154,7.709,7.709,0,0,0-6.151,7.538,7.709,7.709,0,0,0,6.152,7.537,7.8,7.8,0,0,0,1.539.154,7.7,7.7,0,0,0,7.691-7.691A7.7,7.7,0,0,0-355.067,2315.905Z" transform="translate(370.596 -2314.196)" fill="#3f3f3f"/>
          <path id="Path_15646" data-name="Path 15646" d="M-349.382,2375.692a.089.089,0,0,0,0-.01,15.841,15.841,0,0,0-15.085-11.075,16.082,16.082,0,0,0-1.807.1,15.78,15.78,0,0,0-13.588,12.091c-.4,2.145-.14,4.9,3.784,4.9h23.153a3.937,3.937,0,0,0,2.743-.865,2.878,2.878,0,0,0,.661-.881v0A6.79,6.79,0,0,0-349.382,2375.692Zm-3.172,4.276a2.229,2.229,0,0,1-.3.021h-23.225a2.208,2.208,0,0,1-2.135-2.72,14.078,14.078,0,0,1,12.137-10.86,14.359,14.359,0,0,1,1.613-.092,14.071,14.071,0,0,1,3.427.422,14.149,14.149,0,0,1,10.325,10.558A2.2,2.2,0,0,1-352.555,2379.968Z" transform="translate(380 -2344.715)" fill="#3f3f3f"/>
        </g>
        <g id="Group_3344" data-name="Group 3344" transform="translate(32.365 35.592)">
          <path id="Path_15647" data-name="Path 15647" d="M-263.192,2324.907a8.544,8.544,0,0,1-8.546,8.546,8.651,8.651,0,0,1-1.709-.171,8.546,8.546,0,0,1-6.837-8.375,8.546,8.546,0,0,1,6.837-8.375,8.651,8.651,0,0,1,1.709-.171A8.544,8.544,0,0,1-263.192,2324.907Z" transform="translate(287.267 -2315.507)" fill="#f4f4f4"/>
          <path id="Path_15648" data-name="Path 15648" d="M-266.4,2381.262v0a2.874,2.874,0,0,1-.661.882l-28.719-.45c0-.141-.38-.046-.38-.19a14.56,14.56,0,0,1,8.816-13.5l.015-.006a15.09,15.09,0,0,1,4.272-1.13c.371-.042.749-.07,1.129-.086h0c.192-.007.384-.011.577-.011A14.953,14.953,0,0,1-266.4,2381.262Z" transform="translate(296.882 -2346.026)" fill="#f4f4f4"/>
          <ellipse id="Ellipse_727" data-name="Ellipse 727" cx="6.837" cy="8.375" rx="6.837" ry="8.375" transform="translate(6.984 1.025)" fill="#fff"/>
          <path id="Path_15649" data-name="Path 15649" d="M-269.071,2381.4c0,.146,0,.286,0,.427l-25.965-.46c0-.141-.522.178-.522.033a14.952,14.952,0,0,1,13.246-14.856A14.952,14.952,0,0,1-269.071,2381.4Z" transform="translate(296.517 -2345.885)" fill="#fff"/>
          <path id="Path_15650" data-name="Path 15650" d="M-273.049,2333a9.522,9.522,0,0,1-1.878-.188,9.423,9.423,0,0,1-7.522-9.212,9.424,9.424,0,0,1,7.522-9.213,9.535,9.535,0,0,1,1.879-.188,9.411,9.411,0,0,1,9.4,9.4A9.411,9.411,0,0,1-273.049,2333Zm0-17.091a7.829,7.829,0,0,0-1.54.154,7.709,7.709,0,0,0-6.151,7.538,7.709,7.709,0,0,0,6.152,7.537,7.8,7.8,0,0,0,1.539.154,7.7,7.7,0,0,0,7.691-7.691A7.7,7.7,0,0,0-273.049,2315.905Z" transform="translate(288.579 -2314.196)" fill="#3f3f3f"/>
          <path id="Path_15651" data-name="Path 15651" d="M-267.364,2375.692a.09.09,0,0,0,0-.01,15.841,15.841,0,0,0-15.085-11.075,16.083,16.083,0,0,0-1.807.1,15.78,15.78,0,0,0-13.588,12.091c-.4,2.145-.14,4.9,3.784,4.9h23.153a3.937,3.937,0,0,0,2.743-.865,2.878,2.878,0,0,0,.661-.881v0A6.79,6.79,0,0,0-267.364,2375.692Zm-3.172,4.276a2.229,2.229,0,0,1-.3.021h-23.225a2.208,2.208,0,0,1-2.135-2.72,14.078,14.078,0,0,1,12.137-10.86,14.358,14.358,0,0,1,1.613-.092,14.071,14.071,0,0,1,3.427.422A14.149,14.149,0,0,1-268.7,2377.3,2.2,2.2,0,0,1-270.537,2379.968Z" transform="translate(297.982 -2344.715)" fill="#3f3f3f"/>
        </g>
      </g>
    </g>
  </g>
</svg>
