<svg xmlns="http://www.w3.org/2000/svg" width="100" height="100" viewBox="0 0 100 100">
  <g id="icon_exercise" transform="translate(4712 15591)">
    <rect id="Rectangle_2974" data-name="Rectangle 2974" width="100" height="100" transform="translate(-4712 -15591)" fill="none"/>
    <g id="Group_3364" data-name="Group 3364" transform="translate(-4698 -15577)">
      <g id="Group_3357" data-name="Group 3357" transform="translate(0)">
        <g id="Path_15665" data-name="Path 15665" fill="#3c98f0">
          <path d="M 36.16934585571289 72.86267852783203 C 31.15277671813965 72.86267852783203 26.28567504882813 71.88638305664063 21.7032356262207 69.9609375 C 17.27719497680664 68.1011962890625 13.30230617523193 65.43892669677734 9.888996124267578 62.04806518554688 C 6.475215911865234 58.65675735473633 3.794835805892944 54.70722579956055 1.922295808792114 50.30917358398438 C -0.01679414510726929 45.75481414794922 -0.999994158744812 40.91741561889648 -0.999994158744812 35.93133544921875 C -0.999994158744812 30.94525527954102 -0.01679414510726929 26.10785484313965 1.922295808792114 21.55350494384766 C 3.794835805892944 17.15545463562012 6.475215911865234 13.2059154510498 9.888996124267578 9.814605712890625 C 13.30230617523193 6.423755645751953 17.27719497680664 3.76148533821106 21.7032356262207 1.901745438575745 C 26.28567504882813 -0.02370455116033554 31.15277671813965 -0.9999945759773254 36.16934585571289 -0.9999945759773254 C 41.18591690063477 -0.9999945759773254 46.05302429199219 -0.02370455116033554 50.63546752929688 1.901745438575745 C 55.06150436401367 3.76148533821106 59.03638458251953 6.423755645751953 62.44970703125 9.814605712890625 C 65.86347961425781 13.2059154510498 68.54386901855469 17.15545463562012 70.41640472412109 21.55350494384766 C 72.35549926757813 26.10785484313965 73.33869934082031 30.94525527954102 73.33869934082031 35.93133544921875 C 73.33869934082031 40.91741561889648 72.35549926757813 45.75481414794922 70.41640472412109 50.30917358398438 C 68.54386901855469 54.70722579956055 65.86347961425781 58.65675735473633 62.44970703125 62.04806518554688 C 59.03638458251953 65.43892669677734 55.06150436401367 68.1011962890625 50.63546752929688 69.9609375 C 46.05302429199219 71.88638305664063 41.18591690063477 72.86267852783203 36.16934585571289 72.86267852783203 Z" stroke="none"/>
          <path d="M 36.16934585571289 0 C 16.19356918334961 0 0 16.08700180053711 0 35.93133544921875 C 0 55.77566909790039 16.19356918334961 71.8626708984375 36.16934585571289 71.8626708984375 C 56.14512634277344 71.8626708984375 72.33869171142578 55.77566909790039 72.33869171142578 35.93133544921875 C 72.33869171142578 16.08700180053711 56.14512634277344 0 36.16934585571289 0 M 36.16934585571289 -2 C 41.31965637207031 -2 46.31710052490234 -0.9974441528320313 51.02283477783203 0.9798126220703125 C 55.56789016723633 2.889572143554688 59.64956665039063 5.623321533203125 63.15446853637695 9.105167388916016 C 66.66029357910156 12.58791351318359 69.41311645507813 16.64433670043945 71.33647918701172 21.16175842285156 C 73.32859802246094 25.84066772460938 74.33869171142578 30.80987930297852 74.33869171142578 35.93133544921875 C 74.33869171142578 41.05279159545898 73.32859802246094 46.02200317382813 71.33647918701172 50.70091247558594 C 69.41311645507813 55.21833801269531 66.66029357910156 59.27475738525391 63.15446853637695 62.75750350952148 C 59.64956665039063 66.23934936523438 55.56789016723633 68.97309875488281 51.02283477783203 70.88285827636719 C 46.31710052490234 72.86011505126953 41.31965637207031 73.8626708984375 36.16934585571289 73.8626708984375 C 31.01903533935547 73.8626708984375 26.02159118652344 72.86011505126953 21.31585693359375 70.88285827636719 C 16.77080154418945 68.97309875488281 12.68912506103516 66.23934936523438 9.184223175048828 62.75750350952148 C 5.678398132324219 59.27475738525391 2.925582885742188 55.21833801269531 1.002212524414063 50.70091247558594 C -0.9899063110351563 46.02200317382813 -2 41.05279159545898 -2 35.93133544921875 C -2 30.80987930297852 -0.9899063110351563 25.84066772460938 1.002212524414063 21.16175842285156 C 2.925582885742188 16.64433670043945 5.678398132324219 12.58791351318359 9.184223175048828 9.105167388916016 C 12.68912506103516 5.623321533203125 16.77080154418945 2.889572143554688 21.31585693359375 0.9798126220703125 C 26.02159118652344 -0.9974441528320313 31.01903533935547 -2 36.16934585571289 -2 Z" stroke="none" fill="#1d76cb"/>
        </g>
        <g id="Group_3352" data-name="Group 3352" transform="translate(7.139 7.894)">
          <g id="Group_3322" data-name="Group 3322" transform="translate(0.033 1.102)">
            <path id="Path_15619" data-name="Path 15619" d="M778.341,1971.021v7.159H752.685a2.393,2.393,0,0,1-2.387-2.386v-25.655h6.977c0,3.625,2.524,6.563,6.149,6.563a6.563,6.563,0,0,0,6.563-6.563h8.353v7.756a6.563,6.563,0,0,0,0,13.126Z" transform="translate(-750.299 -1921.675)" fill="#3c98f0"/>
            <path id="Path_15620" data-name="Path 15620" d="M978.2,1897.63v25.655a2.394,2.394,0,0,1-2.387,2.387H950.163v-7.16a6.563,6.563,0,1,1-.007-13.126h.007v-7.756h7.159a6.563,6.563,0,1,1,13.126,0Z" transform="translate(-922.122 -1869.166)" fill="#e56d13"/>
            <path id="Path_15621" data-name="Path 15621" d="M978.23,1700.128v25.655h-7.756a6.563,6.563,0,0,0-13.126,0h-7.16v-8.353a6.563,6.563,0,0,1,0-13.126v-6.563h25.655A2.394,2.394,0,0,1,978.23,1700.128Z" transform="translate(-922.147 -1697.318)" fill="#ffc300"/>
            <path id="Path_15621-2" data-name="Path 15621" d="M34.6,2.387V28.042H26.848a6.563,6.563,0,0,0-13.126,0H6.563V19.689a6.563,6.563,0,0,1,0-13.126V0H32.218A2.394,2.394,0,0,1,34.6,2.387Z" transform="translate(1.891 34.604) rotate(-90)" fill="#fff"/>
          </g>
          <path id="Path_15622" data-name="Path 15622" d="M804.89,1684.021H779.235a1.193,1.193,0,0,0-1.193,1.194v5.461a7.757,7.757,0,0,0,0,15.329v6.058h-7.16a1.193,1.193,0,0,0-1.193,1.193,5.37,5.37,0,0,1-10.739,0,1.193,1.193,0,0,0-1.193-1.193h-6.563a1.193,1.193,0,0,0-1.193,1.193v25.655a3.584,3.584,0,0,0,3.58,3.58h51.31a3.584,3.584,0,0,0,3.58-3.58V1687.6A3.584,3.584,0,0,0,804.89,1684.021Zm-31.025,14.319a5.376,5.376,0,0,1,5.37-5.37,1.193,1.193,0,0,0,1.193-1.193v-5.369H804.89a1.2,1.2,0,0,1,1.193,1.193v24.462h-5.461a7.757,7.757,0,0,0-15.329,0h-4.865v-7.16a1.194,1.194,0,0,0-1.193-1.193A5.376,5.376,0,0,1,773.865,1698.34Zm-21.478,40.571v-24.461h4.268a7.757,7.757,0,0,0,15.329,0h6.058v5.461a7.757,7.757,0,0,0,0,15.329v4.865H753.58A1.194,1.194,0,0,1,752.387,1738.911Zm53.7,0a1.2,1.2,0,0,1-1.193,1.193H780.428v-5.966a1.193,1.193,0,0,0-1.193-1.193,5.369,5.369,0,0,1,0-10.739,1.194,1.194,0,0,0,1.193-1.194v-6.563h5.966a1.194,1.194,0,0,0,1.193-1.193,5.37,5.37,0,0,1,10.739,0,1.194,1.194,0,0,0,1.193,1.193h6.564Z" transform="translate(-750 -1684.021)" fill="#3f3f3f"/>
          <g id="Group_3324" data-name="Group 3324" transform="translate(49.52 4.507)">
            <path id="Path_15623" data-name="Path 15623" d="M1200.5,1728.767h-2.386v-1.79h-2.387v-2.386h3.58a1.193,1.193,0,0,1,1.193,1.193Z" transform="translate(-1195.725 -1724.591)" fill="#ffdf78"/>
          </g>
          <g id="Group_3324-2" data-name="Group 3324" transform="translate(5.51 8.982) rotate(-90)">
            <path id="Path_15623-2" data-name="Path 15623" d="M4.773,4.176H2.387V2.386H0V0H3.58A1.194,1.194,0,0,1,4.773,1.193Z" transform="translate(0)" fill="#efefef"/>
          </g>
          <g id="Group_3325" data-name="Group 3325" transform="translate(49.52 50.448)">
            <path id="Path_15624" data-name="Path 15624" d="M1199.3,2142.271h-3.58v-2.386h2.387v-1.79h2.386v2.983A1.194,1.194,0,0,1,1199.3,2142.271Z" transform="translate(-1195.725 -2138.095)" fill="#ff9a4e"/>
          </g>
          <g id="Group_3326" data-name="Group 3326" transform="translate(4.176 50.448)">
            <path id="Path_15625" data-name="Path 15625" d="M792.364,2142.271h-3.58a1.193,1.193,0,0,1-1.193-1.193V2138.1h2.386v1.79h2.386Z" transform="translate(-787.591 -2138.095)" fill="#71baff"/>
          </g>
          <path id="Path_15619-2" data-name="Path 15619" d="M778.341,1686.412l2.289.01v-2.4H753.879a3.584,3.584,0,0,0-3.58,3.58v25.655a1.193,1.193,0,0,0,1.193,1.193h.94c.025-.361.068-.721.12-1.08a.534.534,0,0,1-.065-.414c.072-.3.141-.6.238-.892h-.04V1687.6a1.2,1.2,0,0,1,1.193-1.193h24.462Z" transform="translate(-750.266 -1684.021)" fill="#3f3f3f"/>
        </g>
      </g>
    </g>
  </g>
</svg>
