<svg xmlns="http://www.w3.org/2000/svg" width="100" height="100" viewBox="0 0 100 100">
  <g id="icon_other" transform="translate(4758.001 15403)">
    <g id="Group_3378" data-name="Group 3378" transform="translate(-7093.694 -18015.693)">
      <path id="Rectangle_2973" data-name="Rectangle 2973" d="M2335.693,2712.693v-100h100v100" transform="translate(0)" fill="none"/>
      <g id="Ellipse_733" data-name="Ellipse 733" transform="translate(2349.736 2626.736)">
        <circle id="Ellipse_738" data-name="Ellipse 738" cx="35.957" cy="35.957" r="35.957" transform="translate(0 0)" fill="#ffc544"/>
        <path id="Path_15677" data-name="Path 15677" d="M34.954,0A34.954,34.954,0,1,1,0,34.954,34.954,34.954,0,0,1,34.954,0Z" transform="translate(1.003 1.003)" fill="none" stroke="#ff9400" stroke-width="2"/>
      </g>
      <path id="Path_15676" data-name="Path 15676" d="M2504.78,2823.948l15.46,4.168,8.3-17.747,10.584-12.381-15.177-4.792-14.977-3.2s-8.187,9.985-7.988,11.183l2.4,14.378Z" transform="translate(-132.445 -142.075)" fill="#fff" stroke="#ff9400" stroke-width="2"/>
      <path id="ios-bulb" d="M2520.438,2703.459c3.771-14.01-5.833-28.72-19.9-32.477s-29.779,4.212-33.546,18.2c-1.5,5.575-.333,10.725,1.575,15.862l-.054-.015c1.24,3.228,3.007,4.217,3.993,7.813,1.433,5.244,1.3,8.192.68,10.92a2.987,2.987,0,0,0,2.149,3.523l1.608.429a.751.751,0,0,0,.915-.526l4.575-17a6,6,0,0,0,.078-2.736l-1.758-8.566a1.96,1.96,0,0,1,3.815-.9c.01.044.02.09.027.135l2.081,10.464a5.819,5.819,0,0,1-.087,2.7l-4.58,17.014a.747.747,0,0,0,.528.912l4.334,1.157a.751.751,0,0,0,.915-.527l4.58-17.013a5.841,5.841,0,0,1,1.279-2.377l7.084-8.056a1.881,1.881,0,0,1,2.817,2.492l-5.909,6.635a6.078,6.078,0,0,0-1.306,2.408l-4.57,16.977a.747.747,0,0,0,.529.912l1.8.482a2.993,2.993,0,0,0,3.617-1.931,22.367,22.367,0,0,1,6.034-9.185c2.661-2.624,4.688-2.6,7.383-4.775l-.019,0C2515.339,2712.912,2518.937,2709.035,2520.438,2703.459Zm-43.293,41.471,6.5,1.736a2.608,2.608,0,1,0,1.356-5.036l-6.5-1.736a2.607,2.607,0,1,0-1.356,5.036Zm-1.481-8.878c1.409.5,13.724,3.665,13.724,3.665a2.608,2.608,0,1,0,1.356-5.036l-13.723-3.665a2.619,2.619,0,0,0-3.206,1.843A2.653,2.653,0,0,0,2475.664,2736.053Z" transform="translate(-104.707 -45.907)" fill="#fff" stroke="#ff9400" stroke-miterlimit="10" stroke-width="2"/>
    </g>
  </g>
</svg>
