<svg xmlns="http://www.w3.org/2000/svg" xmlns:xlink="http://www.w3.org/1999/xlink" width="48.886" height="72.572" viewBox="0 0 48.886 72.572"><defs><style>.a,.c{stroke:#ff9261;}.a{fill:url(#a);}.b{fill:none;stroke:#4d4d4d;stroke-linecap:round;stroke-linejoin:round;}.c{fill:#ffa922;}</style><linearGradient id="a" y1="0.226" x2="1.116" y2="0.869" gradientUnits="objectBoundingBox"><stop offset="0" stop-color="#ffbf16"/><stop offset="0.958" stop-color="#ffa126"/><stop offset="1" stop-color="#ffa027"/></linearGradient></defs><g transform="translate(0.502 0.329)"><path class="a" d="M46.62,48.7c1.08-6.435,4.895-7.268,6.8-7.268l.175,0h.043A1.614,1.614,0,0,0,55,40.677a6.309,6.309,0,0,1,5.571-3.168,8.852,8.852,0,0,1,2.445.363,1.607,1.607,0,0,0,.448.064,1.64,1.64,0,0,0,1.372-.756,6.164,6.164,0,0,1,5.361-3,7.557,7.557,0,0,1,4.33,1.356,5.2,5.2,0,0,1,.978,1,1.544,1.544,0,0,0,1.25.626,1.619,1.619,0,0,0,1.555-1.137l6.5-20.393a4.594,4.594,0,0,1,4.507-3.444c2.971,0,5.992,2.566,4.8,6.363L86.523,42.438a1.6,1.6,0,0,0,1.033,2.011c1.666.522,4.1,2.147,4.551,7.163.756,8.47-7.74,17.758-9.161,19.247a1.612,1.612,0,0,0-.316.479l-3.459,8.1a1.579,1.579,0,0,1-1.482.946H55.571a1.581,1.581,0,0,1-1.588-1.3l-.97-8.089a1.521,1.521,0,0,0-.1-.347C52.162,68.883,45.616,54.68,46.62,48.7Z" transform="translate(-46.515 -8.644)"/><line class="b" transform="translate(42.797 0)"/><path class="c" d="M133.631,10.883H116.349l3.808,3.808a1.773,1.773,0,1,1-2.507,2.507l-6.614-6.615a1.773,1.773,0,0,1,0-2.507l6.788-6.788a1.773,1.773,0,1,1,2.507,2.507l-3.542,3.542h16.842a1.773,1.773,0,0,1,0,3.546Z" transform="translate(-106.448 -0.597)"/></g></svg>