<svg xmlns="http://www.w3.org/2000/svg" width="35.289" height="29.775" viewBox="0 0 35.289 29.775"><defs><style>.a{fill:#fff;}.b{fill:#eef5f8;}</style></defs><g transform="translate(-563 -1115)"><g transform="translate(572.339 1115)"><path class="a" d="M-124.315-500.931a1.381,1.381,0,0,1-.43.386l-23.17,13.379a1.39,1.39,0,0,1-2.085-1.2v-26.757a1.39,1.39,0,0,1,2.085-1.2l23.17,13.379A1.39,1.39,0,0,1-124.315-500.931Z" transform="translate(150 516.517)"/><path class="b" d="M-124.315-473.76a1.381,1.381,0,0,1-.43.386l-23.17,13.379A1.39,1.39,0,0,1-150-461.2v-8.939C-144.167-469.356-133.516-468.893-124.315-473.76Z" transform="translate(150 489.347)"/></g><g transform="translate(563 1115)"><rect class="a" width="6.496" height="29.775" rx="2" transform="translate(0 0)"/><path class="b" d="M-164.5-465.628v9.66c0,.83-.98,1.5-2.187,1.5h-2.122c-1.207,0-2.187-.674-2.187-1.5V-466Z" transform="translate(171 484.24)"/></g></g></svg>